<svg width="68" height="68" viewBox="0 0 68 68" fill="none" xmlns="http://www.w3.org/2000/svg">
<path d="M58.5367 33.549L47.4596 24.8243V18.8821C47.5186 17.6911 47.0929 16.5259 46.2759 15.6418C45.4588 14.7578 44.3171 14.227 43.1011 14.166H15.6492C14.4417 14.239 13.3122 14.7749 12.5054 15.6577C11.6986 16.5404 11.2795 17.6989 11.3388 18.8821V42.4624C11.3164 43.3988 11.5793 44.3205 12.094 45.11C12.6086 45.8995 13.3517 46.5211 14.2285 46.8955C13.785 47.9579 13.6121 49.11 13.7248 50.2524C13.8376 51.3948 14.2324 52.4932 14.8754 53.4528C15.5184 54.4124 16.3902 55.2044 17.4155 55.7605C18.4409 56.3166 19.589 56.62 20.7608 56.6446C21.9326 56.6691 23.0929 56.4142 24.1416 55.9016C25.1903 55.3891 26.096 54.6344 26.7803 53.7026C27.4647 52.7709 27.9073 51.69 28.0699 50.5534C28.2325 49.4168 28.1102 48.2585 27.7136 47.1784H43.0288C42.6328 48.2469 42.5055 49.3931 42.6578 50.52C42.8101 51.6469 43.2375 52.7212 43.9037 53.6521C44.5699 54.5829 45.4554 55.3428 46.4852 55.8675C47.515 56.3921 48.6587 56.666 49.8195 56.666C50.9803 56.666 52.1241 56.3921 53.1538 55.8675C54.1836 55.3428 55.0691 54.5829 55.7354 53.6521C56.4016 52.7212 56.829 51.6469 56.9813 50.52C57.1336 49.3931 57.0063 48.2469 56.6103 47.1784H57.0919C57.7305 47.1784 58.343 46.93 58.7946 46.4878C59.2462 46.0456 59.4999 45.4458 59.4999 44.8204V35.3883C59.4925 35.0302 59.402 34.6785 59.2351 34.3598C59.0682 34.0411 58.8294 33.7638 58.5367 33.549ZM54.6838 36.5201V42.4624H47.4596V30.8609L54.6838 36.5201ZM23.3791 49.5365C23.3791 50.0028 23.2378 50.4587 22.9732 50.8465C22.7086 51.2343 22.3326 51.5365 21.8925 51.715C21.4525 51.8935 20.9683 51.9402 20.5012 51.8492C20.0341 51.7582 19.605 51.5336 19.2683 51.2038C18.9315 50.8741 18.7021 50.4539 18.6092 49.9965C18.5163 49.5391 18.564 49.065 18.7463 48.6341C18.9285 48.2032 19.2372 47.8349 19.6332 47.5758C20.0292 47.3167 20.4947 47.1784 20.971 47.1784C21.6097 47.1784 22.2222 47.4269 22.6738 47.8691C23.1254 48.3113 23.3791 48.9111 23.3791 49.5365ZM35.4194 42.4624H16.1549V18.8821H42.6435V42.4624H35.4194ZM52.2757 49.5365C52.2757 50.0028 52.1345 50.4587 51.8699 50.8465C51.6053 51.2343 51.2292 51.5365 50.7892 51.715C50.3492 51.8935 49.865 51.9402 49.3979 51.8492C48.9308 51.7582 48.5017 51.5336 48.1649 51.2038C47.8282 50.8741 47.5988 50.4539 47.5059 49.9965C47.413 49.5391 47.4607 49.065 47.6429 48.6341C47.8252 48.2032 48.1338 47.8349 48.5299 47.5758C48.9259 47.3167 49.3914 47.1784 49.8677 47.1784C50.5064 47.1784 51.1189 47.4269 51.5704 47.8691C52.022 48.3113 52.2757 48.9111 52.2757 49.5365Z" fill="#ECA740"/>
</svg>
