<?xml version="1.0" encoding="utf-8"?><svg xmlns="http://www.w3.org/2000/svg" xmlns:xlink="http://www.w3.org/1999/xlink"><symbol fill="none" viewBox="0 0 21 12" id="arrow-down" xmlns="http://www.w3.org/2000/svg"><path d="M1 1l9.5 9.5L20 1" stroke="#000" stroke-width="1.5" stroke-linecap="round" stroke-linejoin="round"/></symbol><symbol fill="none" viewBox="0 0 18 12" id="arrow-down-small" xmlns="http://www.w3.org/2000/svg"><path d="M1 1l7.844 9.805c.08.1.232.1.312 0L17 1" stroke="#000" stroke-width="1.5" stroke-linecap="round"/></symbol><symbol fill="none" viewBox="0 0 18 12" id="arrow-left" xmlns="http://www.w3.org/2000/svg"><path fill-rule="evenodd" clip-rule="evenodd" d="M5.22 11.28a.75.75 0 001.06-1.06L2.56 6.5h14.69a.75.75 0 000-1.5H2.56l.004-.004.011-.01.01-.011.011-.01.011-.012.011-.01.01-.011.012-.011.01-.01.011-.012.011-.01.011-.012.011-.01.011-.012.011-.01.011-.012.012-.01.01-.012.012-.011.011-.011.011-.012.011-.01.012-.012.011-.011.011-.012.012-.011.011-.011.011-.012.012-.011.011-.012.012-.011.011-.012.012-.011.011-.012.012-.011.012-.012.011-.011.012-.012.011-.012.012-.011.012-.012.012-.012.011-.012.012-.011.012-.012.012-.012.012-.012.011-.012.012-.012.012-.012.012-.011.012-.012.012-.012.012-.012.012-.012.012-.012.012-.013.012-.012.012-.012.012-.012.013-.012.012-.012.012-.012.012-.012.012-.013.013-.012.012-.012.012-.012.012-.013.013-.012.012-.012.012-.013.013-.012.012-.012.012-.013.013-.012.012-.013.013-.012.012-.012.013-.013.012-.012.012-.013.013-.012.013-.013.012-.012L3.561 4l.012-.013.013-.012.012-.013.013-.012.013-.013.012-.013.013-.012.013-.013.012-.013.013-.012.013-.013.012-.013.013-.012.013-.013.013-.013.012-.013.013-.012.013-.013.013-.013.013-.013.012-.013.013-.013.013-.012.013-.013.013-.013.013-.013.013-.013.012-.013.013-.013.013-.013.013-.013.013-.012.013-.013.013-.013.013-.013.013-.013.013-.013.013-.013.013-.013.013-.013.013-.013.013-.013.013-.013.013-.013.013-.013.013-.013.013-.013.013-.013.013-.013.013-.013.013-.014.013-.013.013-.013.013-.013.014-.013.013-.013.013-.013.013-.013.013-.013.013-.013.013-.013.013-.014.013-.013.013-.013.014-.013.013-.013.013-.013.013-.013.013-.013.013-.014.013-.013.013-.013.014-.013.013-.013.013-.013.013-.013.013-.013.013-.014.013-.013.014-.013.013-.013.013-.013.013-.013.013-.013.013-.014.013-.013.013-.013.014-.013.013-.013.013-.013.013-.013.013-.013.013-.014.013-.013.013-.013.014-.013.013-.013.013-.013.013-.013.013-.013.013-.013.013-.013.013-.014.013-.013.013-.013.013-.013.013-.013.014-.013.013-.013.013-.013.013-.013.013-.013.013-.013.013-.013.013-.013.013-.013.013-.013.013-.013.013-.013.013-.013.013-.013.013-.013.013-.013.013-.013.013-.013.013-.013.012-.013.013-.013.013-.013.013-.012.013-.013.013-.013.013-.013.013-.013.013-.013.012-.013.013-.013.013-.012.013-.013.013-.013.012-.013.013-.012.013-.013.013-.013.012-.013.013-.012.013-.013.013-.013.012-.013.013-.012.013-.013.012-.013.013-.012.012-.013.013-.012.013-.013.012-.013.013-.012.012-.013.013-.012.012-.013.013-.012.012-.013.013-.012.012-.013.013-.012.012-.012.013-.013.012-.012.012-.013.013-.012.012-.012.012-.013.013-.012.012-.012.012-.013.012-.012.013-.012.012-.012.012-.012.012-.013.012-.012.013-.012.012-.012.012-.012.012-.012.012-.012.012-.012.012-.012.012-.012.012-.012.012-.012.012-.012.012-.012.012-.012.012-.012.011-.012.012-.012.012-.011.012-.012.012-.012.011-.012.012-.011.012-.012.011-.012.012-.011.012-.012.011-.012.012-.011.011-.012.012-.011.011-.012.012-.011.011-.012A.75.75 0 005.22.22L5.208.23l-.011.012-.012.011-.011.012-.012.011-.011.012L5.139.3l-.012.012-.011.012-.012.011-.012.012-.011.012-.012.011-.012.012-.012.012-.011.012-.012.012-.012.011-.012.012-.012.012-.012.012-.012.012L4.95.49l-.012.012-.012.012-.012.012-.012.012L4.89.55l-.012.012-.012.012-.012.012-.012.013L4.83.61l-.013.012-.012.012-.012.012-.012.013-.012.012-.013.012-.012.012-.012.013-.013.012-.012.012-.012.013-.013.012L4.67.77l-.013.013-.012.012-.012.013-.013.012-.012.013-.013.012-.012.013-.013.012-.012.013-.013.012-.012.013-.013.012-.013.013-.012.013-.013.012L4.47.97l-.013.012-.013.013-.012.013-.013.012-.013.013-.013.013-.012.013-.013.012-.013.013-.013.013-.012.013-.013.012-.013.013-.013.013-.012.013-.013.013-.013.012-.013.013-.013.013-.013.013-.013.013-.012.013-.013.013-.013.013-.013.013-.013.012-.013.013-.013.013-.013.013-.013.013-.013.013-.013.013-.013.013-.013.013-.013.013-.013.013-.013.013-.013.013-.013.013-.013.013-.013.013-.013.013-.013.013-.013.013-.013.014-.013.013-.013.013-.013.013-.013.013-.014.013-.013.013-.013.013-.013.013-.013.013-.013.013-.013.013-.013.014-.013.013-.013.013-.014.013-.013.013-.013.013-.013.013-.013.013-.013.014-.013.013-.013.013-.014.013-.013.013-.013.013-.013.013-.013.013-.013.014-.013.013-.014.013-.013.013-.013.013-.013.013-.013.013-.013.014-.013.013-.013.013-.014.013-.013.013-.013.013-.013.013-.013.013-.013.014-.013.013-.013.013-.014.013-.013.013-.013.013-.013.013-.013.013-.013.013-.013.013-.013.014-.013.013-.013.013-.013.013-.014.013-.013.013-.013.013-.013.013-.013.013-.013.013-.013.013-.013.013-.013.013-.013.013-.013.013L3 2.44l-.013.013-.013.013-.013.013-.013.013-.013.013-.013.013-.013.013-.012.013-.013.013-.013.013-.013.013-.013.012-.013.013-.013.013-.013.013-.013.013-.012.013-.013.013-.013.012-.013.013-.013.013-.013.013-.012.013-.013.012-.013.013-.013.013-.012.013-.013.012-.013.013-.012.013-.013.012-.013.013-.012.013-.013.012-.013.013-.012.013-.013.012-.012.013-.013.012-.013.013-.012.012-.013.013-.012.013-.013.012-.012.012-.013.013-.012.012-.012.013-.013.012-.012.013-.013.012-.012.012-.012.013-.013.012-.012.012-.012.013-.013.012-.012.012-.012.012-.012.013-.013.012-.012.012-.012.012-.012.012-.012.013-.012.012-.012.012-.012.012-.013.012-.012.012-.012.012-.012.012-.012.012-.012.012-.011.012-.012.012-.012.012-.012.011-.012.012L2 3.44l-.012.012-.011.012-.012.011-.012.012-.012.012-.011.012-.012.011-.012.012-.011.011-.012.012-.011.012-.012.011-.011.012-.012.011-.011.012-.012.011-.011.012-.012.01-.011.012-.011.012-.012.01-.01.012-.012.012-.011.01-.012.012-.01.011-.012.011-.011.011-.011.012-.011.01-.011.012-.011.01-.011.012-.011.01-.011.012-.011.01-.011.011-.01.011-.012.011-.01.01-.011.012-.011.01-.01.011-.011.01-.011.011-.01.01-.011.012-.01.01-.011.01L1.44 4l-.011.01-.01.01-.011.011-.01.01-.01.011-.011.01-.01.01-.01.01-.01.011-.01.01-.011.01-.01.01-.01.01-.01.01-.01.01-.01.01-.01.01-.01.01-.01.01-.01.01-.01.01-.01.01-.009.01-.01.009-.01.01-.009.01-.01.009-.009.01-.01.009-.009.01-.01.009-.009.009-.01.01-.008.009-.01.009-.009.01-.01.008-.008.01-.01.009-.008.009-.01.009-.009.009-.008.009-.01.009-.008.009-.01.008-.008.01-.009.008-.008.009-.01.008-.008.01-.008.008-.009.008-.008.009-.009.008-.008.009-.009.008-.008.009-.008.008-.009.008-.008.008-.008.009-.008.008-.008.008-.008.008-.009.008-.007.008-.008.008-.008.008-.008.007-.008.008-.008.008-.007.008-.008.007-.008.008-.007.008-.008.007-.007.008-.008.007-.007.007-.007.008-.008.007-.007.007-.007.007-.007.008-.007.007-.007.007-.007.007-.007.007-.007.007-.007.007-.007.006-.007.007-.007.007-.006.007-.007.006-.006.007-.007.006-.006.007-.007.006-.006.007-.007.006-.006.006-.006.006-.006.007-.006.006-.006.006-.006.006-.006.006-.006.006-.006.006-.006.005-.006.006-.006.006-.005.006-.006.005-.005.006-.006.005-.005.006-.006.005-.005.005-.005.006-.006.005-.005.005-.005.005-.005.005-.005.005-.005.005-.005.005-.005.005-.004.005-.005.005-.005.004-.004.005-.005.004-.005.005-.004.004-.004.005-.005.004-.004.004-.004.005-.004.004-.005.004-.004.004-.004.004-.004.004L.34 5.1l-.004.004-.004.003-.004.004-.003.004-.004.003-.003.004-.004.003-.003.004-.004.003-.003.003L.3 5.14l-.003.003-.003.003-.004.003-.003.003-.002.003-.003.003-.003.002-.003.003-.003.003-.002.002-.003.003-.002.002-.003.003-.002.002-.002.003-.002.002-.003.002-.002.002-.002.002-.002.002-.002.002-.002.002-.001.002-.002.001-.002.002-.001.002-.002.001-.001.002-.002.001-.001.001-.001.002H.23l-.002.002-.002.002-.001.002H.224v.001H.221v.002H.22v.001H.22l.53.531-.53-.53a.75.75 0 000 1.06l5 5z" fill="#000"/></symbol><symbol fill="none" viewBox="0 0 16 17" id="arrow-left-breadcrumbs" xmlns="http://www.w3.org/2000/svg"><path d="M4.12 8.234l7.054-6.29a.459.459 0 01.598 0 .348.348 0 010 .534L5.02 8.499l6.752 6.022a.348.348 0 010 .534.453.453 0 01-.595 0l-7.053-6.29a.347.347 0 01-.003-.531z" fill="#878E95"/></symbol><symbol viewBox="0 0 448 512" id="arrow-left-solid" xmlns="http://www.w3.org/2000/svg"><!--!Font Awesome Free 6.7.2 by @fontawesome - https://fontawesome.com License - https://fontawesome.com/license/free Copyright 2025 Fonticons, Inc.--><path d="M9.4 233.4c-12.5 12.5-12.5 32.8 0 45.3l160 160c12.5 12.5 32.8 12.5 45.3 0s12.5-32.8 0-45.3L109.2 288H416c17.7 0 32-14.3 32-32s-14.3-32-32-32H109.3l105.3-105.4c12.5-12.5 12.5-32.8 0-45.3s-32.8-12.5-45.3 0l-160 160z"/></symbol><symbol fill="none" viewBox="0 0 18 12" id="arrow-right" xmlns="http://www.w3.org/2000/svg"><path fill-rule="evenodd" clip-rule="evenodd" d="M12.78.22a.75.75 0 10-1.06 1.06L15.44 5H.75a.75.75 0 000 1.5h14.69l-.004.004-.011.01-.01.011-.011.01-.011.012-.011.01-.01.011-.012.011-.01.01-.011.012-.011.01-.011.012-.011.01-.011.012-.011.01-.011.012-.012.01-.01.012-.012.011-.011.011-.011.012-.011.01-.012.012-.011.011-.011.012-.012.011-.011.011-.011.012-.012.011-.011.012-.012.011-.011.012-.012.011-.011.012-.012.011-.011.012-.012.011-.012.012-.011.012-.012.011-.012.012-.012.012-.011.012-.012.011L14.94 7l-.012.012-.012.012-.011.012-.012.012-.012.012-.012.011-.012.012-.012.012-.012.012-.012.012-.012.012-.012.013-.012.012-.012.012-.012.012-.013.012-.012.012-.012.012-.012.012-.012.013-.012.012-.013.012-.012.012-.012.013-.013.012-.012.012-.012.013-.013.012-.012.012-.012.013-.013.012-.012.013-.013.012-.012.012-.012.013-.013.012-.013.013-.012.012-.013.013-.012.012-.013.013-.012.013-.013.012-.012.013-.013.012-.013.013-.012.013-.013.012-.013.013-.012.013-.013.012-.013.013-.012.013-.013.012-.013.013-.013.013-.012.013-.013.012-.013.013-.013.013-.013.013-.012.013-.013.013-.013.012-.013.013-.013.013-.013.013-.013.013-.012.013-.013.013-.013.013-.013.013-.013.012-.013.013-.013.013-.013.013-.013.013-.013.013-.013.013L13.94 8l-.013.013-.013.013-.013.013-.013.013-.013.013-.013.013-.013.013-.013.013-.013.013-.013.013-.013.013-.013.014-.013.013-.013.013-.013.013-.013.013-.014.013-.013.013-.013.013-.013.013-.013.013-.013.013-.013.014-.013.013-.013.013-.014.013-.013.013-.013.013-.013.013-.013.013-.013.014-.013.013-.013.013-.014.013-.013.013-.013.013-.013.013-.013.013-.013.014-.013.013-.014.013-.013.013-.013.013-.013.013-.013.013-.013.014-.013.013-.013.013-.014.013-.013.013-.013.013-.013.013-.013.013-.013.014-.013.013-.013.013-.014.013-.013.013-.013.013-.013.013-.013.013-.013.013-.013.013-.013.014-.013.013-.013.013-.013.013-.014.013-.013.013-.013.013-.013.013-.013.013-.013.013-.013.013-.013.013-.013.013-.013.013-.013.013-.013.013-.013.013-.013.013-.013.013-.013.013-.013.013-.013.013-.013.013-.012.013-.013.013-.013.013-.013.013-.013.012-.013.013-.013.013-.013.013-.013.013-.012.013-.013.013-.013.013-.013.012-.013.013-.013.013-.012.013-.013.012-.013.013-.013.013-.012.013-.013.012-.013.013-.012.013-.013.013-.013.012-.012.013-.013.013-.013.012-.012.013-.013.012-.013.013-.012.013-.013.012-.012.013-.013.012-.012.013-.013.012-.012.013-.013.012-.012.013-.013.012-.012.012-.012.013-.013.012-.012.013-.013.012-.012.012-.012.013-.013.012-.012.012-.012.013-.012.012-.013.012-.012.012-.012.012-.012.013-.012.012-.013.012-.012.012-.012.012-.012.012-.012.012-.012.012-.012.012-.012.012-.012.012-.012.012-.012.012-.012.012-.012.012-.011.012-.012.012-.012.011-.012.012-.012.012-.011.012-.012.012-.012.011-.012.012-.011.012-.012.011-.012.012-.011.012-.012.011-.011.012-.012.011-.011.012-.012.011-.011.012a.75.75 0 101.06 1.06l.012-.011.011-.012.012-.011.011-.012.012-.011.011-.012.012-.011.012-.012.011-.012.012-.011.012-.012.011-.012.012-.011.012-.012.012-.012.011-.012.012-.012.012-.012.012-.011.012-.012.012-.012.012-.012.012-.012.012-.012.012-.012.012-.012.012-.012.012-.012.012-.012.012-.012.012-.012.012-.013.012-.012.013-.012.012-.012.012-.012.012-.013.013-.012.012-.012.012-.012.012-.013.013-.012.012-.012.012-.013.013-.012.012-.013.012-.012.013-.012.012-.013.013-.012.012-.013.013-.012.012-.013.013-.012.012-.013.013-.012.012-.013.013-.012.013-.013.012-.013.013-.012.012-.013.013-.012.013-.013.013-.013.012-.013.013-.012.013-.013.012-.013.013-.012.013-.013.013-.013.012-.013.013-.012.013-.013.013-.013.013-.013.012-.013.013-.013.013-.012.013-.013.013-.013.013-.013.013-.013.012-.013.013-.013.013-.013.013-.013.013-.012.013-.013.013-.013.013-.013.013-.013.013-.013.013-.013.013-.013.013-.013.013-.013.013-.013.013-.013.013-.013.013-.013.013-.013.013-.013.013-.013.013-.013.013-.014.013-.013.013-.013.013-.013.014-.013.012-.013.014-.013.013-.013.013-.013.013-.013.013-.013.013-.013.013-.014.013-.013.014-.013.013-.013.013-.013.013-.013.013-.013.013-.013.013-.014.013-.013.014-.013.013-.013.013-.013.013-.013.013-.013.013-.013.013-.014.013-.013.014-.013.013-.013.013-.013.013-.013.013-.013.013-.014.013-.013.013-.013.014-.013.013-.013.013-.013.013-.013.013-.013.013-.014.013-.013.014-.013.013-.013.013-.013.013-.013.013-.013.013-.013.013-.013.013-.013.013-.014.013-.013.013-.013.014-.013.012-.013.014-.013.013-.013.013-.013.013-.013.013-.013.013-.013.013-.013.013-.013.013-.013.013-.013L15 9.06l.013-.013.013-.013.013-.013.013-.013.013-.013.013-.013.013-.013.012-.013.013-.013.013-.013.013-.013.013-.012.013-.013.013-.013.013-.013.013-.013.012-.013.013-.013.013-.012.013-.013.013-.013.012-.013.013-.013.013-.012.013-.013.013-.013.012-.013.013-.012.013-.013.012-.013.013-.012.013-.013.012-.013.013-.012.013-.013.012-.013.013-.012.013-.013.012-.012.013-.013.012-.012.013-.013.012-.013.013-.012.012-.012.013-.013.012-.012.013-.013.012-.012.012-.013.013-.012.012-.012.012-.013.013-.012.012-.012.012-.013.013-.012.012-.012.012-.012.012-.013.013-.012.012-.012.012-.012.012-.012.012-.013.012-.012.012-.012.012-.012.013-.012.012-.012.012-.012.012-.012.012-.012.012-.012.011-.012.012-.012.012-.012.012-.011.012-.012L16 8.06l.012-.012.011-.012.012-.011.012-.012L16.06 8l.011-.012.012-.011.012-.012.011-.011.012-.012.011-.012.012-.011.011-.012.012-.011.011-.012.012-.011.011-.012.012-.01.01-.012.012-.012.012-.011.01-.011.012-.012.011-.01.012-.012.01-.011.012-.011.011-.011.011-.012.011-.01.011-.012.011-.01.011-.012.011-.01.011-.012.011-.01.011-.011.01-.011.012-.011.01-.01.011-.012.011-.01.01-.011.011-.01.011-.011.01-.01.011-.012.01-.01.011-.01.01-.011.011-.01.01-.01.011-.011.01-.01.01-.011.011-.01.01-.01.01-.01.01-.011.01-.01.011-.01.01-.01.01-.01.01-.01.01-.01.01-.01.01-.01.01-.01.01-.01.01-.01.01-.01.01-.01.009-.01.01-.009.01-.01.009-.01.01-.009.009-.01.01-.009.009-.01.01-.009.009-.009.009-.01.01-.009.009-.009.009-.01.01-.008.008-.01.01-.009.008-.009.01-.009.009-.009.009-.009.008-.009.01-.009.008-.008.009-.01.009-.008.009-.009.008-.008.009-.01.008-.008.009-.008.009-.009.008-.008.008-.009.009-.008.008-.009.008-.008.009-.008.008-.008.008-.009.008-.008.008-.008.009-.008.008-.008.008-.008.007-.008.008-.008.008-.007.008-.008.008-.008.007-.008.008-.007.008-.008.007-.008.008-.007.007-.008.008-.007.007-.007.007-.008.008-.007.007-.007.007-.007.007-.008.007-.007.007-.007.008-.007.006-.007.007-.007.007-.007.007-.006.007-.007.006-.007.007-.007.007-.006.006-.007.007-.006.006-.007.007-.006.006-.007.007-.006.006-.006.006-.006.006-.007.006-.006.006-.006.006-.006.006-.006.006-.006.006-.006.006-.005.006-.006.005-.006.006-.006.006-.005.005-.006.006-.005.005-.006.006-.005.005-.005.005-.006.005-.005.006-.005.005-.005.005-.005.005-.005.005-.005.005-.005.005-.005.004-.005.005-.005.005-.004.005-.005.004-.004.005-.005.004-.004.004-.005.005-.004.004-.004.004-.005.005-.004.004-.004.004-.004.004-.004.004-.004.003-.004.004-.004.004-.003.004-.004.003-.004.004-.003.003-.004.004-.003.003-.004.004-.003.003-.003.003-.004.003-.003.003-.003.003-.003.003-.003.003-.003.003-.003.003-.002.003-.003.003-.003.002-.002.003-.003.002-.002.003-.003.002-.002.002-.003.003-.002.002-.002.002-.002.002-.002.002-.002.002-.002.002-.002.001-.002.002-.001.002-.002.001-.002.002-.001.001-.002.002-.001.001-.001.001-.002h.001l.002-.002.002-.002.001-.002h.001v-.001h.002v-.002h.001V6.28h.001l-.53-.531.53.53a.75.75 0 000-1.06l-5-5z" fill="#000"/></symbol><symbol viewBox="0 0 448 512" id="arrow-right-solid" xmlns="http://www.w3.org/2000/svg"><!--!Font Awesome Free 6.7.2 by @fontawesome - https://fontawesome.com License - https://fontawesome.com/license/free Copyright 2025 Fonticons, Inc.--><path d="M438.6 278.6c12.5-12.5 12.5-32.8 0-45.3l-160-160c-12.5-12.5-32.8-12.5-45.3 0s-12.5 32.8 0 45.3L338.8 224H32c-17.7 0-32 14.3-32 32s14.3 32 32 32h306.7L233.4 393.4c-12.5 12.5-12.5 32.8 0 45.3s32.8 12.5 45.3 0l160-160z"/></symbol><symbol fill="none" viewBox="0 0 21 12" id="arrow-top" xmlns="http://www.w3.org/2000/svg"><path d="M20 10.5L10.5 1 1 10.5" stroke="#000" stroke-width="1.5" stroke-linecap="round" stroke-linejoin="round"/></symbol><symbol fill="none" viewBox="0 0 19 17" id="car" xmlns="http://www.w3.org/2000/svg"><path d="M17.66 7.841l-3.91-3.08V2.665a1.57 1.57 0 00-.417-1.143A1.637 1.637 0 0012.213 1h-9.69a1.637 1.637 0 00-1.11.526 1.57 1.57 0 00-.411 1.138v8.323c-.008.33.085.656.266.934.182.279.444.498.754.63a2.45 2.45 0 00.228 2.315c.227.339.535.618.897.814a2.591 2.591 0 002.374.05c.37-.18.69-.447.93-.776a2.448 2.448 0 00.33-2.303h5.406a2.449 2.449 0 00.309 2.285c.235.329.547.597.91.782a2.594 2.594 0 002.354 0c.364-.185.676-.453.911-.782a2.449 2.449 0 00.309-2.285h.17a.86.86 0 00.601-.243.824.824 0 00.249-.589V8.49a.819.819 0 00-.34-.649zM16.3 8.89v2.097h-2.55V6.892L16.3 8.89zM5.251 13.484a.82.82 0 01-.143.462.847.847 0 01-.381.307.866.866 0 01-.926-.18.816.816 0 01-.184-.907.836.836 0 01.312-.374.862.862 0 011.074.103c.159.156.248.368.248.589zm4.25-2.497h-6.8V2.664h9.35v8.323H9.5zm5.95 2.497a.82.82 0 01-.144.462.866.866 0 01-1.308.126.816.816 0 01-.184-.907.835.835 0 01.313-.373.863.863 0 011.073.103c.16.156.25.368.25.589z" fill="#000" stroke="#fff" stroke-width=".5"/></symbol><symbol fill="none" viewBox="0 0 60 60" id="car-item-page" xmlns="http://www.w3.org/2000/svg"><path d="M51.65 29.603l-9.774-7.699v-5.243a3.924 3.924 0 00-1.044-2.859A4.093 4.093 0 0038.03 12.5H13.808a4.092 4.092 0 00-2.774 1.316 3.924 3.924 0 00-1.03 2.845v20.806c-.019.827.213 1.64.667 2.337a4.227 4.227 0 001.884 1.575 6.125 6.125 0 00.57 5.786 6.324 6.324 0 002.242 2.036 6.486 6.486 0 005.935.124 6.34 6.34 0 002.328-1.94 6.17 6.17 0 001.138-2.779 6.119 6.119 0 00-.315-2.977h13.514a6.12 6.12 0 00-.328 2.948 6.167 6.167 0 001.1 2.764 6.335 6.335 0 002.277 1.954 6.484 6.484 0 005.885 0 6.334 6.334 0 002.277-1.954 6.122 6.122 0 00.772-5.712h.425c.564 0 1.104-.22 1.503-.61.398-.39.622-.92.622-1.471v-8.323a2.046 2.046 0 00-.234-.907 2.092 2.092 0 00-.616-.715zm-3.4 2.621v5.243h-6.374V27.231l6.375 4.993zM20.63 43.71c0 .412-.125.814-.358 1.156a2.116 2.116 0 01-.954.767 2.168 2.168 0 01-1.228.118 2.139 2.139 0 01-1.087-.57 2.04 2.04 0 01-.46-2.267c.16-.38.432-.705.781-.934a2.157 2.157 0 012.683.259c.399.39.623.92.623 1.471zm10.623-6.242H14.254V16.661h23.373v20.806h-6.375zm14.874 6.242c0 .412-.125.814-.358 1.156a2.116 2.116 0 01-.954.767 2.168 2.168 0 01-1.227.118 2.14 2.14 0 01-1.089-.57c-.297-.29-.499-.661-.581-1.065a2.04 2.04 0 01.121-1.202c.16-.38.433-.705.783-.934a2.157 2.157 0 012.682.259c.399.39.623.92.623 1.471z" fill="#6598CC" stroke="#fff" stroke-width=".7"/></symbol><symbol fill="none" viewBox="0 0 19 19" id="cart" xmlns="http://www.w3.org/2000/svg"><path d="M7.34 17.273a1.295 1.295 0 100-2.591 1.295 1.295 0 000 2.59zM14.25 17.273a1.295 1.295 0 100-2.591 1.295 1.295 0 000 2.59zM17.15 3.17a.51.51 0 00-.39-.192H6.19l.33 1.033h9.575l-1.356 6.193H7.124l-2.32-7.468a.518.518 0 00-.336-.336l-2.081-.65a.502.502 0 00-.389.038.526.526 0 00-.212.7.512.512 0 00.301.253l1.823.568 2.33 7.483-.832.692-.066.067a1.386 1.386 0 00-.04 1.75 1.376 1.376 0 001.147.516h8.473a.504.504 0 00.359-.152.52.52 0 000-.73.504.504 0 00-.359-.15H6.367a.336.336 0 01-.285-.177.35.35 0 01.001-.34l1.224-1.032h7.838a.502.502 0 00.325-.109.517.517 0 00.183-.294l1.61-7.225a.524.524 0 00-.112-.439z" fill="#000"/></symbol><symbol viewBox="0 0 512 512" class="alsvg-inline--fa alfa-chevron-circle-left alfa-w-16 alfa-9x" id="chevron-circle-left" xmlns="http://www.w3.org/2000/svg"><path fill="currentColor" d="M504 256C504 119 393 8 256 8S8 119 8 256s111 248 248 248 248-111 248-248zM256 472c-118.7 0-216-96.1-216-216 0-118.7 96.1-216 216-216 118.7 0 216 96.1 216 216 0 118.7-96.1 216-216 216zm-86.6-224.5l115.1-115c4.7-4.7 12.3-4.7 17 0l7.1 7.1c4.7 4.7 4.7 12.3 0 17L209 256l99.5 99.5c4.7 4.7 4.7 12.3 0 17l-7.1 7.1c-4.7 4.7-12.3 4.7-17 0l-115.1-115c-4.6-4.8-4.6-12.4.1-17.1z"/></symbol><symbol viewBox="0 0 512 512" class="amsvg-inline--fa amfa-chevron-circle-right amfa-w-16 amfa-9x" id="chevron-circle-right" xmlns="http://www.w3.org/2000/svg"><path fill="currentColor" d="M8 256c0 137 111 248 248 248s248-111 248-248S393 8 256 8 8 119 8 256zM256 40c118.7 0 216 96.1 216 216 0 118.7-96.1 216-216 216-118.7 0-216-96.1-216-216 0-118.7 96.1-216 216-216zm86.6 224.5l-115.1 115c-4.7 4.7-12.3 4.7-17 0l-7.1-7.1c-4.7-4.7-4.7-12.3 0-17L303 256l-99.5-99.5c-4.7-4.7-4.7-12.3 0-17l7.1-7.1c4.7-4.7 12.3-4.7 17 0l115.1 115c4.6 4.8 4.6 12.4-.1 17.1z"/></symbol><symbol fill="none" viewBox="0 0 60 60" id="garanty" xmlns="http://www.w3.org/2000/svg"><path d="M39.246 10H20.754c-2.253 0-3.38 0-4.29.317a5.923 5.923 0 00-3.657 3.764c-.307.938-.307 2.096-.307 4.416v27.23c0 1.669 1.915 2.555 3.127 1.447a1.84 1.84 0 012.496 0l.94.86a3.222 3.222 0 004.375 0 3.222 3.222 0 014.375 0 3.222 3.222 0 004.375 0 3.222 3.222 0 014.374 0 3.222 3.222 0 004.376 0l.939-.86a1.84 1.84 0 012.496 0c1.212 1.108 3.127.222 3.127-1.447v-27.23c0-2.32 0-3.48-.307-4.414a5.92 5.92 0 00-3.658-3.766C42.625 10 41.5 10 39.245 10z" stroke="#6598CC" stroke-width="3"/><path d="M25.139 26.334l2.778 3.11 6.944-7.777" stroke="#6598CC" stroke-width="3" stroke-linecap="round" stroke-linejoin="round"/><path d="M21.25 36.25h17.5" stroke="#6598CC" stroke-width="3" stroke-linecap="round"/></symbol><symbol fill="none" viewBox="0 0 20 20" id="info" xmlns="http://www.w3.org/2000/svg"><g stroke="#6598CC" stroke-linejoin="round"><path d="M10 19a9 9 0 100-18 9 9 0 000 18z" stroke-width="1.5" stroke-linecap="round"/><path d="M10 14h.01v.01H10V14z" stroke-width="2"/><path d="M10 10V6" stroke-width="1.5" stroke-linecap="round"/></g></symbol><symbol fill="none" viewBox="0 0 18 18" id="instr" xmlns="http://www.w3.org/2000/svg"><mask id="apa" maskUnits="userSpaceOnUse" x="0" y="0" width="18" height="18" fill="#000"><path fill="#fff" d="M0 0h18v18H0z"/><path d="M13.25 11.123a.77.77 0 00-.917-.105l-.25-1.015V9.96a.25.25 0 00-.05-.072l-.352-.353a.75.75 0 00-1.063 0l-.177-.18 3.31-3.342a.25.25 0 01.225-.068c.38.082.776.073 1.152-.027a2.527 2.527 0 001.783-1.783c.08-.297.102-.607.067-.912a.5.5 0 00-.855-.293l-.695.71a.25.25 0 01-.355 0l-.7-.707a.249.249 0 01-.072-.183.25.25 0 01.075-.18l.697-.71a.5.5 0 00.118-.52.5.5 0 00-.413-.325 2.5 2.5 0 00-2.722 3.003.25.25 0 01-.055.232L8.648 7.585 4.558 3.5l-.13-.66a.75.75 0 00-.205-.385L2.916 1.148a.5.5 0 00-.708 0l-1.06 1.06a.5.5 0 000 .707l1.305 1.308a.75.75 0 00.385.205l.66.13 4.088 4.09L4.25 12a.25.25 0 01-.225.068 2.465 2.465 0 00-1.153.027 2.527 2.527 0 00-1.79 1.77c-.08.297-.102.607-.067.912a.5.5 0 00.855.293l.695-.71a.25.25 0 01.355 0l.707.708a.25.25 0 01-.002.354l-.698.71a.5.5 0 00.295.853 2.5 2.5 0 002.722-3.002.25.25 0 01.056-.233l3.352-3.335.18.178a.75.75 0 000 1.062l.353.345a.25.25 0 00.072.05h.043l1.012.25a.75.75 0 00.11.95l3.538 3.53a.75.75 0 001.06 0l1.06-1.06a.75.75 0 000-1.06l-3.53-3.537zm-.907-6.528a.75.75 0 00.203-.682 1.975 1.975 0 01.544-1.822c.252-.252.566-.432.91-.523.238-.065.485-.083.728-.053l-.707.71a.751.751 0 000 1.063l.707.712a.75.75 0 001.063 0l.71-.722c.022.243 0 .488-.068.722a2.02 2.02 0 01-1.425 1.425c-.3.08-.616.087-.92.02a.75.75 0 00-.685.203L10.061 9 9 7.94l3.342-3.345zm-6.685 8.81a.75.75 0 00-.202.683 1.975 1.975 0 01-.542 1.815c-.25.25-.562.43-.903.522a1.893 1.893 0 01-.728.052l.698-.712a.75.75 0 000-1.06L3.273 14a.75.75 0 00-1.062 0l-.698.72A2.02 2.02 0 013 12.565c.302-.079.617-.086.92-.02a.75.75 0 00.686-.202L7.94 9 9 10.06l-3.343 3.345zm5.465-3.592a.25.25 0 01.178.072l.177.178-1.415 1.415-.177-.178a.25.25 0 010-.352l1.062-1.063a.25.25 0 01.175-.072zM2.561 1.5l.44.443L1.943 3l-.442-.44L2.56 1.5zm.25 2.368l-.693-.688 1.063-1.062.687.69a.25.25 0 01.07.127l.12.605-.517.518-.605-.12a.25.25 0 01-.128-.07h.003zm1.167.46l.353-.353 5.92 5.91-.365.365-5.908-5.922zm7.72 6.225l.213.847-.5.5-.848-.212 1.135-1.135zm4.73 4.812l-1.062 1.062a.25.25 0 01-.353 0l-3.535-3.537a.25.25 0 010-.352l1.06-1.06a.25.25 0 01.353 0l3.537 3.534a.25.25 0 010 .353z"/></mask><path d="M13.25 11.123a.77.77 0 00-.917-.105l-.25-1.015V9.96a.25.25 0 00-.05-.072l-.352-.353a.75.75 0 00-1.063 0l-.177-.18 3.31-3.342a.25.25 0 01.225-.068c.38.082.776.073 1.152-.027a2.527 2.527 0 001.783-1.783c.08-.297.102-.607.067-.912a.5.5 0 00-.855-.293l-.695.71a.25.25 0 01-.355 0l-.7-.707a.249.249 0 01-.072-.183.25.25 0 01.075-.18l.697-.71a.5.5 0 00.118-.52.5.5 0 00-.413-.325 2.5 2.5 0 00-2.722 3.003.25.25 0 01-.055.232L8.648 7.585 4.558 3.5l-.13-.66a.75.75 0 00-.205-.385L2.916 1.148a.5.5 0 00-.708 0l-1.06 1.06a.5.5 0 000 .707l1.305 1.308a.75.75 0 00.385.205l.66.13 4.088 4.09L4.25 12a.25.25 0 01-.225.068 2.465 2.465 0 00-1.153.027 2.527 2.527 0 00-1.79 1.77c-.08.297-.102.607-.067.912a.5.5 0 00.855.293l.695-.71a.25.25 0 01.355 0l.707.708a.25.25 0 01-.002.354l-.698.71a.5.5 0 00.295.853 2.5 2.5 0 002.722-3.002.25.25 0 01.056-.233l3.352-3.335.18.178a.75.75 0 000 1.062l.353.345a.25.25 0 00.072.05h.043l1.012.25a.75.75 0 00.11.95l3.538 3.53a.75.75 0 001.06 0l1.06-1.06a.75.75 0 000-1.06l-3.53-3.537zm-.907-6.528a.75.75 0 00.203-.682 1.975 1.975 0 01.544-1.822c.252-.252.566-.432.91-.523.238-.065.485-.083.728-.053l-.707.71a.751.751 0 000 1.063l.707.712a.75.75 0 001.063 0l.71-.722c.022.243 0 .488-.068.722a2.02 2.02 0 01-1.425 1.425c-.3.08-.616.087-.92.02a.75.75 0 00-.685.203L10.061 9 9 7.94l3.342-3.345zm-6.685 8.81a.75.75 0 00-.202.683 1.975 1.975 0 01-.542 1.815c-.25.25-.562.43-.903.522a1.893 1.893 0 01-.728.052l.698-.712a.75.75 0 000-1.06L3.273 14a.75.75 0 00-1.062 0l-.698.72A2.02 2.02 0 013 12.565c.302-.079.617-.086.92-.02a.75.75 0 00.686-.202L7.94 9 9 10.06l-3.343 3.345zm5.465-3.592a.25.25 0 01.178.072l.177.178-1.415 1.415-.177-.178a.25.25 0 010-.352l1.062-1.063a.25.25 0 01.175-.072zM2.561 1.5l.44.443L1.943 3l-.442-.44L2.56 1.5zm.25 2.368l-.693-.688 1.063-1.062.687.69a.25.25 0 01.07.127l.12.605-.517.518-.605-.12a.25.25 0 01-.128-.07h.003zm1.167.46l.353-.353 5.92 5.91-.365.365-5.908-5.922zm7.72 6.225l.213.847-.5.5-.848-.212 1.135-1.135zm4.73 4.812l-1.062 1.062a.25.25 0 01-.353 0l-3.535-3.537a.25.25 0 010-.352l1.06-1.06a.25.25 0 01.353 0l3.537 3.534a.25.25 0 010 .353z" fill="#190933"/><path d="M13.25 11.123a.77.77 0 00-.917-.105l-.25-1.015V9.96a.25.25 0 00-.05-.072l-.352-.353a.75.75 0 00-1.063 0l-.177-.18 3.31-3.342a.25.25 0 01.225-.068c.38.082.776.073 1.152-.027a2.527 2.527 0 001.783-1.783c.08-.297.102-.607.067-.912a.5.5 0 00-.855-.293l-.695.71a.25.25 0 01-.355 0l-.7-.707a.249.249 0 01-.072-.183.25.25 0 01.075-.18l.697-.71a.5.5 0 00.118-.52.5.5 0 00-.413-.325 2.5 2.5 0 00-2.722 3.003.25.25 0 01-.055.232L8.648 7.585 4.558 3.5l-.13-.66a.75.75 0 00-.205-.385L2.916 1.148a.5.5 0 00-.708 0l-1.06 1.06a.5.5 0 000 .707l1.305 1.308a.75.75 0 00.385.205l.66.13 4.088 4.09L4.25 12a.25.25 0 01-.225.068 2.465 2.465 0 00-1.153.027 2.527 2.527 0 00-1.79 1.77c-.08.297-.102.607-.067.912a.5.5 0 00.855.293l.695-.71a.25.25 0 01.355 0l.707.708a.25.25 0 01-.002.354l-.698.71a.5.5 0 00.295.853 2.5 2.5 0 002.722-3.002.25.25 0 01.056-.233l3.352-3.335.18.178a.75.75 0 000 1.062l.353.345a.25.25 0 00.072.05h.043l1.012.25a.75.75 0 00.11.95l3.538 3.53a.75.75 0 001.06 0l1.06-1.06a.75.75 0 000-1.06l-3.53-3.537zm-.907-6.528a.75.75 0 00.203-.682 1.975 1.975 0 01.544-1.822c.252-.252.566-.432.91-.523.238-.065.485-.083.728-.053l-.707.71a.751.751 0 000 1.063l.707.712a.75.75 0 001.063 0l.71-.722c.022.243 0 .488-.068.722a2.02 2.02 0 01-1.425 1.425c-.3.08-.616.087-.92.02a.75.75 0 00-.685.203L10.061 9 9 7.94l3.342-3.345zm-6.685 8.81a.75.75 0 00-.202.683 1.975 1.975 0 01-.542 1.815c-.25.25-.562.43-.903.522a1.893 1.893 0 01-.728.052l.698-.712a.75.75 0 000-1.06L3.273 14a.75.75 0 00-1.062 0l-.698.72A2.02 2.02 0 013 12.565c.302-.079.617-.086.92-.02a.75.75 0 00.686-.202L7.94 9 9 10.06l-3.343 3.345zm5.465-3.592a.25.25 0 01.178.072l.177.178-1.415 1.415-.177-.178a.25.25 0 010-.352l1.062-1.063a.25.25 0 01.175-.072zM2.561 1.5l.44.443L1.943 3l-.442-.44L2.56 1.5zm.25 2.368l-.693-.688 1.063-1.062.687.69a.25.25 0 01.07.127l.12.605-.517.518-.605-.12a.25.25 0 01-.128-.07h.003zm1.167.46l.353-.353 5.92 5.91-.365.365-5.908-5.922zm7.72 6.225l.213.847-.5.5-.848-.212 1.135-1.135zm4.73 4.812l-1.062 1.062a.25.25 0 01-.353 0l-3.535-3.537a.25.25 0 010-.352l1.06-1.06a.25.25 0 01.353 0l3.537 3.534a.25.25 0 010 .353z" stroke="#000" stroke-width=".4" mask="url(#apa)"/></symbol><symbol fill="none" viewBox="0 0 15 19" id="list" xmlns="http://www.w3.org/2000/svg"><path d="M14.077 8.08v7.958A1.961 1.961 0 0112.115 18H2.962A1.962 1.962 0 011 16.038V2.962A1.962 1.962 0 012.962 1h4.035c.347 0 .68.138.924.383l5.773 5.773c.245.245.383.577.383.924z" stroke="#000" stroke-width="1.2" stroke-linejoin="round"/><path d="M7.538 1.327V6.23a1.308 1.308 0 001.308 1.307h4.904" stroke="#000" stroke-width="1.2" stroke-linecap="round" stroke-linejoin="round"/></symbol><symbol fill="none" viewBox="0 0 13 15" id="man" xmlns="http://www.w3.org/2000/svg"><path fill-rule="evenodd" clip-rule="evenodd" d="M8.25 3.5a2 2 0 11-4 0 2 2 0 014 0zm1.5 0a3.5 3.5 0 11-7 0 3.5 3.5 0 017 0zm-6 4.75A3.75 3.75 0 000 12v1c0 .966.784 1.75 1.75 1.75h9A1.75 1.75 0 0012.5 13v-1a3.75 3.75 0 00-3.75-3.75h-5zM1.5 12a2.25 2.25 0 012.25-2.25h5A2.25 2.25 0 0111 12v1a.25.25 0 01-.25.25h-9A.25.25 0 011.5 13v-1z" fill="#000"/></symbol><symbol fill="none" viewBox="0 0 12 19" id="map" xmlns="http://www.w3.org/2000/svg"><path fill-rule="evenodd" clip-rule="evenodd" d="M9.434 10.796c-1.059 2.425-2.49 4.798-3.44 6.274-.943-1.478-2.36-3.851-3.415-6.276-.57-1.312-1.017-2.598-1.235-3.74-.222-1.164-.178-2.033.067-2.61C2.354 2.22 4.18 1.197 5.951 1.2c1.776.002 3.634 1.035 4.622 3.261.255.575.309 1.439.092 2.6-.213 1.139-.658 2.424-1.23 3.735zM6.776 18.07a.927.927 0 01-1.57-.004c-1.885-2.91-6.42-10.505-4.9-14.09 2.253-5.31 9.017-5.29 11.364 0 1.592 3.587-2.99 11.187-4.894 14.094zM4.388 6.219a1.644 1.644 0 113.288 0 1.644 1.644 0 01-3.288 0zm1.644-2.844a2.844 2.844 0 100 5.688 2.844 2.844 0 000-5.688z" fill="#000"/></symbol><symbol fill="none" viewBox="0 0 14 2" id="minus" xmlns="http://www.w3.org/2000/svg"><path stroke="#000" stroke-width="1.5" stroke-linecap="round" d="M.75 1.25h12.5"/></symbol><symbol fill="none" viewBox="0 0 15 15" id="phone" xmlns="http://www.w3.org/2000/svg"><path d="M3.017 6.492a12.58 12.58 0 005.491 5.491l1.834-1.833a.836.836 0 01.85-.208 9.467 9.467 0 002.975.475.834.834 0 01.833.833v2.917a.833.833 0 01-.833.833A14.167 14.167 0 010 .833.833.833 0 01.833 0H3.75a.833.833 0 01.833.833c0 1.042.167 2.042.475 2.975a.836.836 0 01-.208.85L3.017 6.492z" fill="#000"/></symbol><symbol fill="none" viewBox="0 0 16 16" id="plus" xmlns="http://www.w3.org/2000/svg"><path d="M8 1v14M1 8h14" stroke="#000" stroke-width="1.5" stroke-linecap="round"/></symbol><symbol fill="none" viewBox="0 0 14 18" id="rub" xmlns="http://www.w3.org/2000/svg"><path d="M3 18a.968.968 0 01-.713-.288A.964.964 0 012 17v-2H1a.968.968 0 01-.713-.288A.964.964 0 010 14c0-.283.096-.521.288-.713A.964.964 0 011 13h1v-2H1a.968.968 0 01-.713-.288A.964.964 0 010 10c0-.283.096-.521.288-.713A.964.964 0 011 9h1V1c0-.283.096-.521.288-.713A.964.964 0 013 0h5.5c1.533 0 2.833.533 3.9 1.6C13.467 2.667 14 3.967 14 5.5s-.533 2.833-1.6 3.9c-1.067 1.067-2.367 1.6-3.9 1.6H4v2h3c.283 0 .521.096.713.288.192.192.288.43.287.712a.968.968 0 01-.288.713A.964.964 0 017 15H4v2a.968.968 0 01-.288.713A.964.964 0 013 18zm1-9h4.5c.967 0 1.792-.342 2.475-1.025A3.372 3.372 0 0012 5.5c0-.967-.342-1.792-1.025-2.475A3.372 3.372 0 008.5 2H4v7z" fill="#000"/></symbol><symbol fill="none" viewBox="0 0 15 16" id="search" xmlns="http://www.w3.org/2000/svg"><path fill-rule="evenodd" clip-rule="evenodd" d="M11.5 6.5a5 5 0 11-10 0 5 5 0 0110 0zm-1.337 5.37a6.5 6.5 0 111.136-.986l3.231 3.232a.75.75 0 01-1.06 1.06l-3.307-3.306z" fill="#000"/></symbol><symbol fill="none" viewBox="0 0 18 17" id="star" xmlns="http://www.w3.org/2000/svg"><path d="M7.128 5.803L9 1.302l1.872 4.5a.7.7 0 00.59.43l4.86.39-3.703 3.17a.7.7 0 00-.225.694l1.13 4.742-4.16-2.541a.7.7 0 00-.729 0l-4.16 2.54 1.131-4.74a.7.7 0 00-.225-.695l-3.702-3.17 4.859-.39a.7.7 0 00.59-.43z" stroke="#000"/></symbol><symbol fill="none" viewBox="0 0 10 19" id="temperature" xmlns="http://www.w3.org/2000/svg"><path d="M8.73 10.075V3.779a3.798 3.798 0 00-1.096-2.671A3.722 3.722 0 004.99 0c-.992 0-1.944.398-2.645 1.107a3.798 3.798 0 00-1.096 2.671v6.298A5.057 5.057 0 00.103 12.39a5.086 5.086 0 00.143 2.583c.27.833.75 1.582 1.394 2.17a4.97 4.97 0 002.277 1.186 5.77 5.77 0 001.072.143 4.952 4.952 0 002.722-.801 5.024 5.024 0 001.85-2.17 5.083 5.083 0 00-.831-5.425zm-1.663 5.937a3.312 3.312 0 01-4.705-.286 3.388 3.388 0 01.283-4.752.84.84 0 00.249-.596v-6.6c0-.556.219-1.09.609-1.484a2.068 2.068 0 012.939 0c.39.394.609.928.609 1.484v6.667a.847.847 0 00.249.596 3.388 3.388 0 01.652 3.94c-.214.426-.516.8-.885 1.098v-.067zM5.82 11.99V9.656a.844.844 0 00-.243-.594.827.827 0 00-1.176 0 .844.844 0 00-.243.594v2.334c-.252.146-.46.357-.606.61-.146.254-.224.541-.226.834 0 .445.175.873.487 1.187a1.654 1.654 0 002.352 0c.311-.315.487-.742.487-1.187a1.692 1.692 0 00-.226-.834 1.672 1.672 0 00-.606-.61z" fill="#000"/></symbol><symbol fill="none" viewBox="0 0 11 9" id="triangle" xmlns="http://www.w3.org/2000/svg"><path d="M6.286 8.002a1 1 0 01-1.572 0L.28 2.369A1 1 0 011.065.75h8.87a1 1 0 01.786 1.619L6.286 8.002z" fill="#000"/></symbol><symbol fill="none" viewBox="0 0 60 60" id="walet" xmlns="http://www.w3.org/2000/svg"><path d="M34.799 28.023a.625.625 0 00-.45.19.674.674 0 00-.192.463v4.88a.674.674 0 00.192.464c.12.123.283.19.452.189H48.96a.625.625 0 00.452-.189c.12-.122.19-.29.192-.464v-4.88a.674.674 0 00-.192-.464.625.625 0 00-.452-.189H34.799zm8.682-15.52c1.96.096 3.369.498 4.261 1.35.882.842 1.335 2.062 1.424 3.677v4.625c-.005.394-.16.77-.43 1.046a1.405 1.405 0 01-1.017.424 1.387 1.387 0 01-.55-.107 1.428 1.428 0 01-.468-.316 1.489 1.489 0 01-.316-.479 1.536 1.536 0 01-.115-.568l.002-4.542c-.047-.838-.24-1.358-.517-1.623-.268-.256-1.084-.486-2.344-.552H15.625c-1.141.044-1.883.27-2.242.59-.276.244-.484.92-.487 2.086l-.006 25.964c.106 1.134.346 1.89.654 2.268.234.287.959.573 2.026.715H43.44c1.305.026 2.074-.177 2.333-.448.287-.302.495-1.097.495-2.396v-4.511c0-.81.649-1.47 1.45-1.47.799 0 1.447.66 1.447 1.47v4.511c0 1.986-.391 3.47-1.307 4.434-.944.993-2.444 1.39-4.448 1.346l-28.014-.007c-1.906-.23-3.272-.772-4.086-1.771-.737-.905-1.147-2.195-1.311-4V18.112c.004-1.932.45-3.386 1.475-4.295.939-.838 2.295-1.246 4.095-1.317H43.48v.002zm5.479 12.582c1.955 0 3.54 1.608 3.54 3.591v4.88c0 1.983-1.585 3.591-3.54 3.591H34.8c-1.954 0-3.54-1.61-3.54-3.591v-4.88c0-1.983 1.586-3.591 3.54-3.591h14.16zm-10.619 4.28a1.771 1.771 0 000 3.542 1.771 1.771 0 000-3.545v.003z" fill="#6598CC"/></symbol><symbol fill="none" viewBox="0 0 20 17" id="wind" xmlns="http://www.w3.org/2000/svg"><path d="M7.9 1.544a1.795 1.795 0 012.442-.126c.232.193.413.44.528.72a1.866 1.866 0 01-.171 1.732 1.827 1.827 0 01-.658.6c-.264.143-.56.217-.86.216H1m9.627 10.513a1.795 1.795 0 002.443.126 1.865 1.865 0 00.356-2.452 1.828 1.828 0 00-.658-.601 1.799 1.799 0 00-.859-.215H1m14.3-7.62a2.244 2.244 0 013.047-.15 2.333 2.333 0 01.449 3.058 2.284 2.284 0 01-.817.753c-.329.179-.696.273-1.07.273H1" stroke="#000" stroke-linecap="round" stroke-linejoin="round"/></symbol><symbol fill="none" viewBox="0 0 15 14" id="x" xmlns="http://www.w3.org/2000/svg"><path d="M.854.146a.5.5 0 10-.708.708L6.36 7.067.762 12.665a.5.5 0 10.707.707l5.598-5.598 5.598 5.598a.5.5 0 10.707-.707L7.774 7.067 13.987.854a.5.5 0 10-.707-.708L7.067 6.36.854.146z" fill="#000"/></symbol><symbol viewBox="0 0 384 512" id="xmark-solid" xmlns="http://www.w3.org/2000/svg"><!--!Font Awesome Free 6.7.2 by @fontawesome - https://fontawesome.com License - https://fontawesome.com/license/free Copyright 2025 Fonticons, Inc.--><path d="M342.6 150.6c12.5-12.5 12.5-32.8 0-45.3s-32.8-12.5-45.3 0L192 210.7 86.6 105.4c-12.5-12.5-32.8-12.5-45.3 0s-12.5 32.8 0 45.3L146.7 256 41.4 361.4c-12.5 12.5-12.5 32.8 0 45.3s32.8 12.5 45.3 0L192 301.3l105.4 105.3c12.5 12.5 32.8 12.5 45.3 0s12.5-32.8 0-45.3L237.3 256l105.3-105.4z"/></symbol><symbol fill="none" viewBox="0 0 12 12" id="xx" xmlns="http://www.w3.org/2000/svg"><path d="M10.85.95l-9.9 9.9m0-9.9l9.9 9.9" stroke="#000" stroke-width="1.5" stroke-linecap="round"/></symbol><symbol fill="none" viewBox="0 0 20 19" id="zvuk" xmlns="http://www.w3.org/2000/svg"><path d="M13.578.147a1.426 1.426 0 00-1.461.12l-7.441 5.39H2.224A2.181 2.181 0 000 7.793v2.851a2.188 2.188 0 002.23 2.139h2.446l7.44 5.495c.246.18.544.278.849.278.222 0 .442-.05.641-.15a1.426 1.426 0 00.749-1.283V1.444a1.425 1.425 0 00-.777-1.297zM2.224 11.379a.762.762 0 01-.799-.712V7.816a.755.755 0 01.806-.713h1.967v4.276H2.224zm10.69 5.752l-7.29-5.417V6.725l7.305-5.281v15.68l-.014.007zm5.853-7.847l1.012-1.162a.713.713 0 10-1.07-.934l-.89 1.013-.891-1.013a.714.714 0 00-1.236.692.713.713 0 00.167.242l1.012 1.162-1.012 1.162a.713.713 0 00.064.976c.13.115.297.178.47.178a.713.713 0 00.535-.25l.89-.983.891 1.012a.714.714 0 00.535.25.712.712 0 00.535-1.183l-1.012-1.162z" fill="#000"/><path d="M13.578.147a1.426 1.426 0 00-1.461.12l-7.441 5.39H2.224A2.181 2.181 0 000 7.793v2.851a2.188 2.188 0 002.23 2.139h2.446l7.44 5.495c.246.18.544.278.849.278.222 0 .442-.05.641-.15a1.426 1.426 0 00.749-1.283V1.444a1.425 1.425 0 00-.777-1.297zM2.224 11.379a.762.762 0 01-.799-.712V7.816a.755.755 0 01.806-.713h1.967v4.276H2.224zm10.69 5.752l-7.29-5.417V6.725l7.305-5.281v15.68l-.014.007zm5.853-7.847l1.012-1.162a.713.713 0 10-1.07-.934l-.89 1.013-.891-1.013a.714.714 0 00-1.236.692.713.713 0 00.167.242l1.012 1.162-1.012 1.162a.713.713 0 00.064.976c.13.115.297.178.47.178a.713.713 0 00.535-.25l.89-.983.891 1.012a.714.714 0 00.535.25.712.712 0 00.535-1.183l-1.012-1.162z" stroke="#009945"/></symbol></svg>