<svg width="40" height="40" viewBox="0 0 40 40" fill="none" xmlns="http://www.w3.org/2000/svg">
<path d="M14.2168 28.8004C13.7287 29.2885 12.9374 29.2885 12.4493 28.8004L4.11592 20.467C3.65824 20.0094 3.62914 19.2848 4.02965 18.7939L4.11592 18.6994L4.1387 18.6767L4.14033 18.6734L4.14359 18.6718L4.14521 18.6685L4.14847 18.6669L4.16963 18.6457L4.17288 18.6409C4.17407 18.6397 4.17654 18.6388 4.17777 18.6376L4.1973 18.6181C4.19861 18.6168 4.19921 18.6145 4.20055 18.6132C4.20189 18.6118 4.20406 18.6113 4.20544 18.6099L4.2152 18.6002C4.21654 18.5988 4.21709 18.5967 4.21846 18.5953L4.22334 18.5904C4.22468 18.5891 4.22685 18.5885 4.22822 18.5871C4.22986 18.5855 4.23143 18.5823 4.23311 18.5806C4.23477 18.579 4.23791 18.5775 4.23962 18.5758L4.34704 18.4683C4.34934 18.466 4.35121 18.4625 4.35355 18.4602C4.35587 18.4579 4.35933 18.456 4.36169 18.4537L4.41377 18.4016C4.4162 18.3992 4.41782 18.3959 4.42028 18.3935C4.42268 18.3911 4.42599 18.3894 4.42842 18.3869L4.46097 18.3544C4.46374 18.3516 4.46631 18.3474 4.46911 18.3446C4.47191 18.3418 4.47604 18.3393 4.47887 18.3365L4.51305 18.3023C4.51601 18.2994 4.51821 18.2955 4.52119 18.2925C4.52416 18.2896 4.52796 18.2874 4.53096 18.2844L4.56839 18.247C4.57134 18.244 4.57356 18.2402 4.57653 18.2372C4.5795 18.2342 4.5833 18.2321 4.5863 18.2291L4.63512 18.1802C4.63845 18.1769 4.64154 18.1722 4.64489 18.1689C4.64825 18.1655 4.65289 18.1625 4.65628 18.1591L4.8402 17.9752C4.84406 17.9713 4.84771 17.966 4.85159 17.9621C4.85545 17.9583 4.86073 17.9546 4.86462 17.9508L4.8874 17.928C4.89136 17.924 4.89481 17.9189 4.8988 17.9149C4.90277 17.911 4.90782 17.9075 4.91182 17.9036L4.99808 17.8173C5.00214 17.8132 5.00539 17.8083 5.00947 17.8043C5.0135 17.8002 5.01844 17.7969 5.02249 17.7929L5.16735 17.648C5.17186 17.6435 5.17583 17.6379 5.18037 17.6334C5.1849 17.6288 5.19046 17.6249 5.19502 17.6203L5.25036 17.565C5.25493 17.5604 5.25878 17.555 5.26338 17.5504C5.26798 17.5458 5.2734 17.542 5.27803 17.5373L5.29268 17.5227C5.29728 17.5181 5.30107 17.5127 5.3057 17.508C5.31029 17.5035 5.31573 17.4996 5.32034 17.495L5.46683 17.3485C5.47182 17.3435 5.47647 17.3373 5.48148 17.3323C5.48649 17.3272 5.49272 17.3227 5.49775 17.3176L5.69958 17.1158C5.70472 17.1106 5.70906 17.1047 5.71422 17.0995C5.71934 17.0944 5.72537 17.09 5.7305 17.0849L6.09834 16.717C6.10403 16.7113 6.10891 16.7048 6.11462 16.6991C6.12029 16.6934 6.12682 16.6885 6.13252 16.6828L6.41735 16.398C6.42342 16.3919 6.42917 16.3846 6.43525 16.3785C6.44131 16.3724 6.44872 16.3667 6.45478 16.3606L6.49059 16.3248C6.49671 16.3187 6.50236 16.3114 6.5085 16.3052C6.51464 16.2991 6.52187 16.2935 6.52803 16.2873L6.58337 16.232C6.58956 16.2258 6.59506 16.2187 6.60127 16.2125C6.60749 16.2062 6.61456 16.2008 6.6208 16.1946C6.62703 16.1883 6.63246 16.1813 6.6387 16.175C6.64493 16.1688 6.65199 16.1634 6.65824 16.1571L6.7152 16.1002C6.7214 16.094 6.72689 16.0869 6.7331 16.0806C6.73934 16.0744 6.74639 16.069 6.75264 16.0627L6.77217 16.0432C6.7784 16.037 6.78383 16.0299 6.79007 16.0237C6.79629 16.0175 6.80337 16.012 6.8096 16.0058L6.8682 15.9472C6.87443 15.9409 6.87985 15.9339 6.8861 15.9276C6.89233 15.9214 6.89939 15.916 6.90563 15.9097L7.10094 15.7144C7.10751 15.7079 7.11389 15.6998 7.12048 15.6933C7.12706 15.6867 7.13504 15.6803 7.14163 15.6737L7.20023 15.6151C7.20686 15.6085 7.21311 15.6006 7.21976 15.594C7.22639 15.5873 7.23427 15.5811 7.24092 15.5744L7.38089 15.4345C7.3876 15.4278 7.39371 15.42 7.40042 15.4133C7.40717 15.4066 7.41483 15.4005 7.42158 15.3938C7.42833 15.387 7.43435 15.3794 7.44111 15.3726C7.44786 15.3659 7.45552 15.3598 7.46227 15.3531L7.50296 15.3124C7.50974 15.3056 7.51571 15.298 7.52249 15.2912C7.52927 15.2845 7.53687 15.2785 7.54365 15.2717L7.6055 15.2099C7.61226 15.2031 7.61827 15.1955 7.62503 15.1887C7.63181 15.1819 7.6394 15.176 7.64619 15.1692L7.66735 15.148C7.6741 15.1413 7.68012 15.1336 7.68688 15.1269C7.69366 15.1201 7.70125 15.1141 7.70804 15.1073L7.83337 14.982C7.84014 14.9752 7.84612 14.9676 7.8529 14.9608C7.85967 14.9541 7.86727 14.9481 7.87406 14.9413L8.00101 14.8144C8.00779 14.8076 8.01375 14.8 8.02054 14.7932L8.0417 14.772C8.04848 14.7653 8.05607 14.7593 8.06286 14.7525L8.16865 14.6467C8.17572 14.6396 8.18273 14.631 8.18981 14.6239L8.21097 14.6028C8.21805 14.5957 8.22667 14.5887 8.23376 14.5816L8.38187 14.4335C8.389 14.4264 8.39589 14.4179 8.40303 14.4107C8.41015 14.4036 8.41868 14.3967 8.42581 14.3896L8.59671 14.2187C8.60387 14.2115 8.61071 14.203 8.61787 14.1959C8.62506 14.1887 8.63346 14.1819 8.64066 14.1747L8.74808 14.0673C8.75528 14.0601 8.76203 14.0517 8.76924 14.0445C8.77646 14.0373 8.7848 14.0306 8.79202 14.0233L8.81318 14.0022C8.82041 13.995 8.82711 13.9866 8.83434 13.9794C8.84157 13.9722 8.8499 13.9655 8.85713 13.9582L8.87829 13.9371C8.88552 13.9298 8.89221 13.9215 8.89945 13.9143C8.90669 13.9071 8.91499 13.9004 8.92223 13.8931L9.05244 13.7629C9.05971 13.7557 9.06633 13.7474 9.0736 13.7401C9.08087 13.7329 9.08912 13.7262 9.09639 13.719L9.16149 13.6539C9.16875 13.6466 9.17538 13.6384 9.18265 13.6311C9.18993 13.6238 9.19816 13.6172 9.20544 13.6099L9.31449 13.5009C9.32177 13.4936 9.32836 13.4854 9.33564 13.4781C9.34293 13.4708 9.35114 13.4642 9.35843 13.4569L9.51143 13.3039C9.51872 13.2967 9.52529 13.2884 9.53258 13.2812C9.53988 13.2739 9.54807 13.2673 9.55537 13.26L9.75231 13.0631C9.75961 13.0558 9.76617 13.0476 9.77347 13.0403C9.78075 13.033 9.78898 13.0264 9.79626 13.0191L9.90531 12.9101C9.91257 12.9028 9.9192 12.8945 9.92646 12.8873C9.93375 12.88 9.94197 12.8734 9.94925 12.8661L10.0583 12.7571C10.0656 12.7498 10.0722 12.7416 10.0795 12.7343C10.0867 12.727 10.095 12.7204 10.1022 12.7131L10.1673 12.648C10.1746 12.6408 10.1812 12.6325 10.1885 12.6252C10.1958 12.618 10.204 12.6113 10.2113 12.6041L10.558 12.2574C10.5652 12.2502 10.5719 12.2418 10.5791 12.2346C10.5863 12.2274 10.5948 12.2206 10.6019 12.2134L10.7517 12.0637C10.7588 12.0566 10.7657 12.0481 10.7728 12.0409C10.78 12.0338 10.7885 12.0269 10.7956 12.0198L10.9014 11.914C10.9085 11.9069 10.9154 11.8983 10.9226 11.8912C10.9297 11.8841 10.9382 11.8771 10.9453 11.87L11.2627 11.5526C11.2695 11.5459 11.2755 11.5383 11.2823 11.5315C11.289 11.5247 11.2966 11.5187 11.3034 11.5119L11.3881 11.4273C11.3948 11.4205 11.4008 11.4129 11.4076 11.4062C11.4144 11.3994 11.422 11.3934 11.4287 11.3866L11.6566 11.1588C11.6634 11.152 11.6694 11.1443 11.6761 11.1376C11.6829 11.1308 11.6905 11.1248 11.6973 11.1181C11.7041 11.1113 11.7101 11.1037 11.7168 11.0969C11.7236 11.0902 11.7312 11.0841 11.738 11.0774L11.7787 11.0367C11.7854 11.0299 11.7915 11.0223 11.7982 11.0155C11.805 11.0088 11.8126 11.0027 11.8194 10.996L12.1384 10.677C12.1449 10.6704 12.1514 10.6624 12.1579 10.6558L12.1774 10.6363C12.184 10.6298 12.1921 10.6233 12.1986 10.6168L12.2572 10.5582C12.2634 10.5519 12.2689 10.5449 12.2751 10.5386L12.2946 10.5191C12.3009 10.5129 12.3079 10.5074 12.3142 10.5012L12.3923 10.4231C12.3985 10.4168 12.404 10.4098 12.4102 10.4036C12.4164 10.3973 12.4235 10.3919 12.4297 10.3856L12.4493 10.3661C12.9374 9.87796 13.7287 9.87796 14.2168 10.3661C14.705 10.8543 14.705 11.6455 14.2168 12.1337L14.1973 12.1532C14.1911 12.1594 14.1856 12.1665 14.1794 12.1728C14.1732 12.179 14.1661 12.1844 14.1599 12.1907L14.0817 12.2688C14.0755 12.275 14.0701 12.2821 14.0638 12.2883L14.0443 12.3078C14.0381 12.3141 14.031 12.3195 14.0248 12.3258L13.9662 12.3843C13.9596 12.3909 13.9532 12.399 13.9466 12.4055L13.9271 12.425C13.9206 12.4316 13.9125 12.438 13.906 12.4446L13.5869 12.7636C13.5802 12.7703 13.5742 12.778 13.5674 12.7847C13.5607 12.7915 13.553 12.7975 13.5463 12.8043L13.5056 12.845C13.4988 12.8517 13.4928 12.8594 13.486 12.8661C13.4793 12.8729 13.4717 12.8789 13.4649 12.8856C13.4581 12.8924 13.4521 12.9 13.4453 12.9068C13.4386 12.9136 13.4309 12.9196 13.4242 12.9263L13.1963 13.1542C13.1896 13.161 13.1836 13.1686 13.1768 13.1754C13.17 13.1821 13.1624 13.1881 13.1556 13.1949L13.071 13.2795C13.0642 13.2863 13.0582 13.2939 13.0515 13.3007C13.0447 13.3075 13.0371 13.3134 13.0303 13.3202L12.7129 13.6376C12.7058 13.6447 12.6989 13.6533 12.6918 13.6604C12.6847 13.6675 12.6761 13.6744 12.669 13.6815L12.5632 13.7873C12.5561 13.7945 12.5492 13.803 12.542 13.8101C12.5349 13.8173 12.5264 13.8241 12.5192 13.8313L12.3695 13.981C12.3623 13.9882 12.3555 13.9966 12.3483 14.0038C12.3411 14.011 12.3328 14.0178 12.3256 14.025L11.9789 14.3717C11.9716 14.3789 11.965 14.3872 11.9577 14.3944C11.9505 14.4017 11.9422 14.4083 11.9349 14.4156L11.8698 14.4807C11.8626 14.488 11.8559 14.4962 11.8487 14.5035C11.8414 14.5108 11.8332 14.5174 11.8259 14.5246L11.7168 14.6337C11.7095 14.641 11.703 14.6492 11.6957 14.6565C11.6884 14.6637 11.6801 14.6704 11.6729 14.6776L11.5638 14.7867C11.5566 14.794 11.55 14.8022 11.5427 14.8095C11.5354 14.8168 11.5272 14.8233 11.5199 14.8306L11.3229 15.0276C11.3157 15.0349 11.3091 15.0431 11.3018 15.0504C11.2945 15.0577 11.2863 15.0642 11.279 15.0715L11.126 15.2245C11.1187 15.2318 11.1121 15.24 11.1048 15.2473C11.0976 15.2546 11.0893 15.2612 11.0821 15.2685L10.973 15.3775C10.9657 15.3848 10.9591 15.393 10.9519 15.4003C10.9446 15.4076 10.9363 15.4142 10.9291 15.4215L10.864 15.4866C10.8567 15.4938 10.8501 15.5021 10.8428 15.5093C10.8355 15.5166 10.8273 15.5232 10.82 15.5305L10.6898 15.6607C10.6826 15.668 10.6759 15.6763 10.6687 15.6835C10.6614 15.6907 10.6531 15.6974 10.6459 15.7047L10.6247 15.7258C10.6175 15.733 10.6108 15.7414 10.6035 15.7486C10.5963 15.7558 10.588 15.7625 10.5808 15.7698L10.5596 15.7909C10.5524 15.7981 10.5457 15.8065 10.5384 15.8137C10.5312 15.8209 10.5229 15.8277 10.5157 15.8349L10.4082 15.9423C10.401 15.9495 10.3943 15.9579 10.3871 15.9651C10.3799 15.9722 10.3714 15.9791 10.3643 15.9862L10.1934 16.1571C10.1863 16.1643 10.1794 16.1728 10.1722 16.1799C10.1651 16.1871 10.1566 16.1939 10.1494 16.2011L10.0013 16.3492C9.99424 16.3563 9.98726 16.3649 9.98018 16.372L9.95902 16.3931C9.95194 16.4002 9.9433 16.4072 9.93623 16.4143L9.83044 16.5201C9.82365 16.5269 9.81768 16.5345 9.8109 16.5412L9.78975 16.5624C9.78296 16.5692 9.77536 16.5752 9.76859 16.5819L9.64163 16.7089C9.63485 16.7157 9.62888 16.7233 9.6221 16.73C9.61532 16.7368 9.60772 16.7428 9.60094 16.7496L9.47562 16.8749C9.46883 16.8817 9.46286 16.8893 9.45609 16.8961C9.44933 16.9028 9.44168 16.9088 9.43493 16.9156L9.41377 16.9368C9.40698 16.9435 9.40101 16.9511 9.39424 16.9579C9.38747 16.9647 9.37983 16.9707 9.37308 16.9774L9.31123 17.0393C9.30444 17.0461 9.29848 17.0537 9.2917 17.0605C9.28491 17.0672 9.27731 17.0732 9.27054 17.08L9.22985 17.1207C9.2231 17.1274 9.21706 17.1351 9.21032 17.1418C9.20356 17.1486 9.19591 17.1546 9.18916 17.1614C9.1824 17.1681 9.17637 17.1758 9.16963 17.1825C9.16291 17.1892 9.15518 17.1953 9.14847 17.2021L9.0085 17.342C9.00185 17.3487 8.9956 17.3566 8.98896 17.3632C8.98232 17.3698 8.97444 17.3761 8.96781 17.3827L8.90921 17.4413C8.90261 17.4479 8.89627 17.4559 8.88968 17.4625C8.8831 17.4691 8.87509 17.4754 8.86852 17.482L8.67321 17.6773C8.66697 17.6836 8.66154 17.6906 8.65531 17.6968C8.64906 17.7031 8.64201 17.7085 8.63577 17.7147L8.57718 17.7733C8.57095 17.7796 8.56549 17.7867 8.55928 17.7929C8.55303 17.7991 8.54598 17.8045 8.53975 17.8108L8.52021 17.8303C8.51397 17.8366 8.50854 17.8436 8.50231 17.8498C8.49609 17.8561 8.48898 17.8615 8.48278 17.8677L8.42581 17.9247C8.41957 17.931 8.41414 17.938 8.40791 17.9442C8.40166 17.9505 8.39461 17.9559 8.38838 17.9621C8.38214 17.9684 8.3767 17.9755 8.37047 17.9817C8.36426 17.9879 8.35714 17.9934 8.35094 17.9996L8.29561 18.0549C8.28944 18.0611 8.28385 18.0683 8.2777 18.0744C8.27157 18.0806 8.26429 18.0862 8.25817 18.0924L8.22236 18.1282C8.21629 18.1342 8.21051 18.1416 8.20446 18.1477C8.19838 18.1538 8.191 18.1595 8.18493 18.1656L8.01728 18.3332H32.4997C33.1901 18.3332 33.7497 18.8929 33.7497 19.5832C33.7497 20.2736 33.1901 20.8332 32.4997 20.8332H8.01728L14.2168 27.0328C14.705 27.5209 14.705 28.3122 14.2168 28.8004Z" fill="black"/>
</svg>
