<svg width="42" height="42" viewBox="0 0 42 42" fill="none" xmlns="http://www.w3.org/2000/svg">
<path d="M24.447 10.8844C24.9596 10.3719 25.7904 10.3719 26.303 10.8844L35.053 19.6344C35.5335 20.115 35.5641 20.8757 35.1436 21.3913L35.053 21.4904L35.0291 21.5143L35.0273 21.5177L35.0239 21.5194L35.0222 21.5229L35.0188 21.5246L34.9966 21.5468L34.9932 21.5519C34.9919 21.5531 34.9893 21.554 34.988 21.5553L34.9675 21.5758C34.9662 21.5772 34.9655 21.5795 34.9641 21.581C34.9627 21.5824 34.9604 21.5829 34.959 21.5844L34.9487 21.5946C34.9473 21.596 34.9467 21.5983 34.9453 21.5998C34.9437 21.6014 34.9419 21.6032 34.9402 21.6049C34.9388 21.6063 34.9365 21.6069 34.9351 21.6083C34.9333 21.61 34.9317 21.6134 34.9299 21.6151C34.9282 21.6169 34.9249 21.6185 34.9231 21.6203L34.8103 21.7331C34.8079 21.7355 34.8059 21.7392 34.8035 21.7416C34.801 21.744 34.7974 21.746 34.7949 21.7484L34.7402 21.8031C34.7377 21.8057 34.736 21.8091 34.7334 21.8117C34.7309 21.8142 34.7274 21.816 34.7249 21.8185L34.6907 21.8527C34.6878 21.8556 34.6851 21.86 34.6821 21.8629C34.6792 21.8659 34.6748 21.8685 34.6719 21.8715L34.636 21.9074C34.6329 21.9105 34.6306 21.9145 34.6274 21.9176C34.6243 21.9207 34.6203 21.923 34.6172 21.9262L34.5779 21.9655C34.5748 21.9686 34.5725 21.9726 34.5693 21.9757C34.5662 21.9789 34.5622 21.9811 34.5591 21.9843L34.5078 22.0355C34.5043 22.039 34.5011 22.044 34.4976 22.0475C34.494 22.051 34.4892 22.0542 34.4856 22.0578L34.2925 22.2509C34.2884 22.2549 34.2846 22.2605 34.2805 22.2645C34.2765 22.2686 34.2709 22.2724 34.2668 22.2765L34.2429 22.3004C34.2388 22.3046 34.2351 22.3099 34.231 22.3141C34.2268 22.3183 34.2215 22.3219 34.2173 22.3261L34.1267 22.4166C34.1224 22.4209 34.119 22.426 34.1147 22.4303C34.1105 22.4346 34.1053 22.438 34.1011 22.4423L33.949 22.5944C33.9442 22.5991 33.9401 22.605 33.9353 22.6098C33.9305 22.6145 33.9247 22.6187 33.9199 22.6234L33.8618 22.6815C33.857 22.6863 33.853 22.6921 33.8481 22.6969C33.8433 22.7018 33.8376 22.7057 33.8328 22.7106C33.8278 22.7155 33.8223 22.721 33.8174 22.726C33.8125 22.7308 33.8086 22.7365 33.8037 22.7414C33.7989 22.7462 33.7932 22.7502 33.7883 22.755L33.6345 22.9088C33.6293 22.9141 33.6244 22.9207 33.6191 22.9259C33.6139 22.9312 33.6073 22.936 33.602 22.9413L33.3901 23.1532C33.3847 23.1586 33.3802 23.1649 33.3748 23.1703C33.3694 23.1757 33.3631 23.1803 33.3577 23.1857L32.9714 23.5719C32.9655 23.5779 32.9603 23.5847 32.9543 23.5907C32.9484 23.5967 32.9415 23.6018 32.9355 23.6078L32.6365 23.9069C32.6301 23.9133 32.6241 23.921 32.6177 23.9274C32.6113 23.9337 32.6035 23.9398 32.5972 23.9462L32.5596 23.9838C32.5531 23.9902 32.5472 23.9979 32.5408 24.0043C32.5343 24.0107 32.5267 24.0166 32.5203 24.0231L32.4622 24.0812C32.4556 24.0877 32.4499 24.0952 32.4434 24.1017C32.4368 24.1082 32.4294 24.114 32.4228 24.1205C32.4163 24.127 32.4106 24.1345 32.4041 24.141C32.3975 24.1476 32.3901 24.1533 32.3835 24.1598L32.3237 24.2196C32.3172 24.2261 32.3115 24.2336 32.3049 24.2401C32.2984 24.2467 32.291 24.2524 32.2844 24.2589C32.2778 24.2656 32.2706 24.2728 32.2639 24.2794C32.2574 24.286 32.2517 24.2934 32.2451 24.2999C32.2386 24.3065 32.2311 24.3122 32.2246 24.3187L32.1631 24.3803C32.1565 24.3868 32.1508 24.3942 32.1443 24.4008C32.1377 24.4073 32.1303 24.413 32.1238 24.4196L31.9187 24.6247C31.9118 24.6316 31.9051 24.64 31.8982 24.6469C31.8913 24.6538 31.8829 24.6605 31.876 24.6674L31.8145 24.7289C31.8075 24.7359 31.8009 24.7441 31.7939 24.7511C31.787 24.7581 31.7787 24.7647 31.7717 24.7716L31.6248 24.9186C31.6177 24.9256 31.6113 24.9338 31.6042 24.9408C31.5972 24.9479 31.5891 24.9542 31.582 24.9613C31.5749 24.9684 31.5686 24.9764 31.5615 24.9835C31.5544 24.9906 31.5464 24.997 31.5393 25.0041L31.4966 25.0468C31.4895 25.0539 31.4832 25.0619 31.4761 25.069C31.469 25.0761 31.461 25.0824 31.4539 25.0895L31.3889 25.1544C31.3818 25.1615 31.3755 25.1696 31.3684 25.1767C31.3613 25.1838 31.3533 25.19 31.3462 25.1972L31.324 25.2194C31.3169 25.2265 31.3106 25.2345 31.3035 25.2416C31.2963 25.2487 31.2884 25.255 31.2812 25.2621L31.1497 25.3937C31.1425 25.4008 31.1363 25.4088 31.1291 25.4159C31.122 25.423 31.1141 25.4293 31.1069 25.4364L30.9736 25.5697C30.9665 25.5768 30.9602 25.5848 30.9531 25.5919C30.9458 25.5993 30.9383 25.6068 30.9309 25.6142C30.9238 25.6213 30.9158 25.6275 30.9087 25.6347L30.7976 25.7458C30.7902 25.7532 30.7828 25.7622 30.7754 25.7697C30.768 25.7771 30.7606 25.7845 30.7532 25.7919C30.7457 25.7993 30.7367 25.8067 30.7292 25.8141L30.5737 25.9696C30.5662 25.9771 30.559 25.9861 30.5515 25.9936C30.544 26.001 30.5351 26.0083 30.5276 26.0158L30.3481 26.1952C30.3406 26.2027 30.3334 26.2116 30.3259 26.2191C30.3184 26.2267 30.3096 26.2338 30.302 26.2414L30.1892 26.3541C30.1816 26.3617 30.1746 26.3705 30.167 26.3781C30.1594 26.3857 30.1507 26.3927 30.1431 26.4003C30.1357 26.4077 30.1283 26.4151 30.1208 26.4225C30.1133 26.4301 30.1062 26.4388 30.0986 26.4464C30.091 26.454 30.0823 26.4611 30.0747 26.4687C30.0673 26.4761 30.0599 26.4835 30.0525 26.4909C30.0449 26.4985 30.0379 26.5072 30.0303 26.5148C30.0227 26.5224 30.014 26.5294 30.0063 26.537L29.8696 26.6737C29.862 26.6814 29.855 26.69 29.8474 26.6977C29.8398 26.7053 29.8311 26.7122 29.8235 26.7199L29.7551 26.7882C29.7475 26.7959 29.7405 26.8045 29.7329 26.8122C29.7253 26.8198 29.7166 26.8267 29.709 26.8344L29.5945 26.9489C29.5868 26.9565 29.5799 26.9652 29.5723 26.9728C29.5646 26.9805 29.556 26.9874 29.5483 26.995L29.3877 27.1557C29.38 27.1633 29.3731 27.1719 29.3655 27.1796C29.3578 27.1873 29.3492 27.1941 29.3416 27.2018L29.1348 27.4086C29.1271 27.4163 29.1202 27.4249 29.1125 27.4325C29.1049 27.4402 29.0963 27.4471 29.0886 27.4547L28.9741 27.5692C28.9665 27.5769 28.9595 27.5855 28.9519 27.5932C28.9443 27.6008 28.9356 27.6077 28.928 27.6154L28.8135 27.7299C28.8058 27.7375 28.7989 27.7462 28.7913 27.7538C28.7836 27.7614 28.775 27.7684 28.7673 27.776L28.699 27.8444C28.6913 27.852 28.6844 27.8607 28.6768 27.8683C28.6691 27.8759 28.6604 27.8829 28.6528 27.8905L28.2888 28.2545C28.2813 28.2621 28.2742 28.2709 28.2666 28.2785C28.2591 28.286 28.2502 28.2932 28.2427 28.3007L28.0854 28.4579C28.0779 28.4654 28.0707 28.4743 28.0632 28.4818C28.0557 28.4893 28.0468 28.4966 28.0393 28.5041L27.9282 28.6151C27.9207 28.6226 27.9135 28.6316 27.906 28.6391C27.8985 28.6465 27.8895 28.6538 27.8821 28.6613L27.5488 28.9945C27.5417 29.0017 27.5354 29.0096 27.5283 29.0167C27.5212 29.0239 27.5132 29.0301 27.5061 29.0373L27.4172 29.1261C27.4101 29.1332 27.4038 29.1412 27.3967 29.1483C27.3896 29.1554 27.3816 29.1618 27.3745 29.1688L27.1353 29.4081C27.1282 29.4152 27.1218 29.4232 27.1147 29.4303C27.1076 29.4374 27.0996 29.4437 27.0925 29.4508C27.0854 29.4579 27.0791 29.4659 27.072 29.473C27.0649 29.4801 27.0569 29.4865 27.0498 29.4936L27.0071 29.5363C27 29.5434 26.9936 29.5514 26.9866 29.5585C26.9795 29.5656 26.9714 29.5719 26.9644 29.579L26.6294 29.914C26.6225 29.9209 26.6158 29.9293 26.6089 29.9362C26.602 29.943 26.5952 29.9499 26.5884 29.9567C26.5815 29.9636 26.573 29.9703 26.5662 29.9772L26.5046 30.0387C26.4981 30.0453 26.4924 30.0527 26.4858 30.0592C26.479 30.066 26.4721 30.0729 26.4653 30.0797C26.4588 30.0863 26.4514 30.092 26.4448 30.0985L26.3628 30.1806C26.3562 30.1871 26.3505 30.1945 26.344 30.2011C26.3374 30.2076 26.33 30.2133 26.3235 30.2199C26.3168 30.2266 26.3097 30.2337 26.303 30.2404C25.7904 30.7529 24.9596 30.7529 24.447 30.2404C23.9345 29.7278 23.9345 28.897 24.447 28.3844C24.4537 28.3777 24.4608 28.3706 24.4675 28.3639C24.4741 28.3574 24.4798 28.35 24.4863 28.3434C24.4929 28.3369 24.5003 28.3312 24.5068 28.3246L24.5889 28.2426C24.5954 28.236 24.6011 28.2286 24.6077 28.2221C24.6145 28.2153 24.6214 28.2084 24.6282 28.2016C24.6347 28.195 24.6421 28.1893 24.6487 28.1828L24.7102 28.1212C24.7171 28.1144 24.7238 28.1059 24.7307 28.099C24.7375 28.0922 24.7444 28.0854 24.7512 28.0785C24.7581 28.0716 24.7665 28.0649 24.7734 28.058L25.1084 27.723C25.1155 27.716 25.1218 27.7079 25.1289 27.7008C25.136 27.6938 25.144 27.6874 25.1511 27.6803L25.1938 27.6376C25.2009 27.6305 25.2073 27.6225 25.2144 27.6154C25.2215 27.6083 25.2295 27.602 25.2366 27.5949C25.2437 27.5878 25.25 27.5798 25.2571 27.5727C25.2642 27.5656 25.2722 27.5592 25.2793 27.5521L25.5186 27.3129C25.5257 27.3058 25.532 27.2978 25.5391 27.2907C25.5462 27.2836 25.5542 27.2773 25.5613 27.2702L25.6501 27.1813C25.6573 27.1742 25.6635 27.1662 25.6707 27.1591C25.6778 27.152 25.6857 27.1457 25.6929 27.1386L26.0261 26.8053C26.0336 26.7979 26.0409 26.7889 26.0483 26.7814C26.0558 26.7739 26.0648 26.7667 26.0723 26.7592L26.1833 26.6481C26.1908 26.6406 26.1981 26.6317 26.2056 26.6242C26.2131 26.6167 26.222 26.6095 26.2295 26.602L26.3867 26.4447C26.3942 26.4372 26.4014 26.4283 26.4089 26.4208C26.4165 26.4132 26.4253 26.4061 26.4329 26.3986L26.7969 26.0346C26.8045 26.027 26.8115 26.0183 26.8191 26.0106C26.8267 26.003 26.8354 25.9961 26.843 25.9884L26.9114 25.9201C26.919 25.9124 26.926 25.9038 26.9336 25.8961C26.9412 25.8885 26.9499 25.8816 26.9575 25.8739L27.072 25.7594C27.0797 25.7518 27.0866 25.7431 27.0942 25.7355C27.1019 25.7279 27.1105 25.7209 27.1182 25.7133L27.2327 25.5988C27.2403 25.5911 27.2472 25.5825 27.2549 25.5749C27.2625 25.5672 27.2711 25.5603 27.2788 25.5526L27.4856 25.3458C27.4933 25.3382 27.5001 25.3296 27.5078 25.3219C27.5155 25.3143 27.5241 25.3074 27.5317 25.2997L27.6924 25.1391C27.7 25.1314 27.7069 25.1228 27.7146 25.1151C27.7222 25.1075 27.7309 25.1006 27.7385 25.0929L27.853 24.9784C27.8607 24.9708 27.8676 24.9621 27.8752 24.9545C27.8829 24.9469 27.8915 24.9399 27.8992 24.9323L27.9675 24.8639C27.9752 24.8563 27.9821 24.8476 27.9897 24.84C27.9974 24.8324 28.006 24.8254 28.0137 24.8178L28.1504 24.6811C28.158 24.6734 28.165 24.6647 28.1726 24.6571C28.1802 24.6495 28.1889 24.6425 28.1965 24.6349C28.2039 24.6275 28.2113 24.6201 28.2187 24.6127C28.2263 24.6051 28.2334 24.5964 28.241 24.5888C28.2486 24.5812 28.2573 24.5741 28.2649 24.5666C28.2723 24.5591 28.2797 24.5517 28.2871 24.5443C28.2947 24.5367 28.3017 24.528 28.3093 24.5204C28.3169 24.5128 28.3257 24.5058 28.3333 24.4982L28.446 24.3854C28.4536 24.3778 28.4607 24.369 28.4683 24.3615C28.4758 24.3539 28.4847 24.3468 28.4922 24.3393L28.6716 24.1598C28.6791 24.1523 28.6864 24.1434 28.6938 24.1359C28.7013 24.1284 28.7103 24.1212 28.7178 24.1137L28.8733 23.9582C28.8807 23.9507 28.8881 23.9417 28.8955 23.9342C28.9029 23.9268 28.9103 23.9194 28.9177 23.912C28.9252 23.9046 28.9342 23.8972 28.9416 23.8898L29.0527 23.7787C29.0599 23.7716 29.0661 23.7636 29.0732 23.7565L29.0955 23.7343C29.1026 23.7272 29.1106 23.7209 29.1177 23.7138L29.251 23.5805C29.2581 23.5733 29.2644 23.5654 29.2715 23.5583C29.2786 23.5511 29.2866 23.5449 29.2937 23.5377L29.4253 23.4062C29.4324 23.399 29.4387 23.391 29.4458 23.3839C29.4529 23.3768 29.4609 23.3705 29.468 23.3634C29.4752 23.3562 29.483 23.3484 29.4902 23.3412C29.4974 23.3341 29.5036 23.3261 29.5107 23.319C29.5178 23.3119 29.5259 23.3056 29.533 23.2985L29.5979 23.2335C29.605 23.2264 29.6113 23.2184 29.6184 23.2113C29.6255 23.2042 29.6335 23.1979 29.6406 23.1908L29.6833 23.1481C29.6904 23.141 29.6968 23.133 29.7039 23.1259C29.711 23.1188 29.719 23.1125 29.7261 23.1054C29.7332 23.0983 29.7395 23.0902 29.7466 23.0832C29.7536 23.0761 29.7618 23.0697 29.7688 23.0626L29.9158 22.9157C29.9227 22.9087 29.9293 22.9004 29.9363 22.8935C29.9433 22.8865 29.9515 22.8799 29.9585 22.8729L30.02 22.8114C30.0269 22.8045 30.0336 22.7961 30.0405 22.7892C30.0474 22.7823 30.0558 22.7756 30.0627 22.7687L30.2678 22.5636C30.2744 22.5571 30.2801 22.5497 30.2866 22.5431C30.2932 22.5366 30.3006 22.5309 30.3071 22.5243L30.3687 22.4628C30.3752 22.4562 30.3809 22.4488 30.3874 22.4423C30.394 22.4357 30.4014 22.43 30.408 22.4235C30.4146 22.4168 30.4218 22.4096 30.4285 22.403C30.435 22.3964 30.4407 22.389 30.4473 22.3825C30.4538 22.3759 30.4613 22.3702 30.4678 22.3637L30.5276 22.3039C30.5341 22.2973 30.5398 22.2899 30.5464 22.2833C30.5529 22.2768 30.5603 22.2711 30.5669 22.2645C30.5734 22.258 30.5792 22.2506 30.5857 22.244C30.5922 22.2375 30.5997 22.2318 30.6062 22.2252L30.6643 22.1671C30.6708 22.1607 30.6767 22.1531 30.6831 22.1466C30.6895 22.1402 30.6972 22.1343 30.7036 22.1278L30.7412 22.0902C30.7476 22.0839 30.7537 22.0761 30.76 22.0697C30.7664 22.0633 30.7741 22.0573 30.7805 22.0509L30.9565 21.8749H5.25C4.52513 21.8749 3.9375 21.2873 3.9375 20.5624C3.9375 19.8375 4.52513 19.2499 5.25 19.2499H30.9565L24.447 12.7404C23.9345 12.2278 23.9345 11.397 24.447 10.8844Z" fill="black"/>
</svg>
