<svg width="38" height="38" viewBox="0 0 38 38" fill="none" xmlns="http://www.w3.org/2000/svg">
<path d="M22.1187 9.84781C22.5825 9.38406 23.3342 9.38406 23.7979 9.84781L31.7146 17.7645C32.1494 18.1993 32.177 18.8876 31.7965 19.354L31.7146 19.4437L31.693 19.4653L31.6914 19.4684L31.6883 19.47L31.6868 19.4731L31.6837 19.4746L31.6636 19.4947L31.6605 19.4993C31.6594 19.5005 31.657 19.5013 31.6558 19.5024L31.6373 19.521C31.636 19.5222 31.6355 19.5244 31.6342 19.5256C31.6329 19.5269 31.6309 19.5274 31.6296 19.5287L31.6203 19.538C31.619 19.5393 31.6185 19.5413 31.6172 19.5426C31.6157 19.5441 31.6141 19.5457 31.6125 19.5473C31.6113 19.5486 31.6092 19.5491 31.6079 19.5504C31.6064 19.5519 31.6049 19.555 31.6033 19.5566C31.6017 19.5581 31.5987 19.5596 31.5971 19.5612L31.495 19.6632C31.4928 19.6654 31.4911 19.6688 31.4888 19.671C31.4866 19.6732 31.4834 19.6749 31.4811 19.6772L31.4316 19.7266C31.4293 19.7289 31.4278 19.732 31.4255 19.7344C31.4232 19.7367 31.42 19.7382 31.4177 19.7406L31.3868 19.7715C31.3842 19.7741 31.3817 19.7781 31.3791 19.7808C31.3764 19.7834 31.3725 19.7858 31.3698 19.7885L31.3373 19.821C31.3345 19.8238 31.3324 19.8274 31.3296 19.8302C31.3268 19.8331 31.3232 19.8351 31.3203 19.838L31.2847 19.8735C31.282 19.8763 31.2798 19.88 31.277 19.8828C31.2742 19.8856 31.2706 19.8877 31.2677 19.8905L31.2214 19.9369C31.2182 19.9401 31.2153 19.9446 31.2121 19.9477C31.2089 19.9509 31.2045 19.9538 31.2013 19.957L31.0265 20.1317C31.0229 20.1354 31.0194 20.1404 31.0157 20.1441C31.012 20.1478 31.007 20.1512 31.0033 20.1549L30.9817 20.1766C30.9779 20.1804 30.9747 20.1852 30.9709 20.189C30.9671 20.1927 30.9623 20.196 30.9585 20.1998L30.8765 20.2817C30.8727 20.2856 30.8696 20.2902 30.8657 20.2941C30.8619 20.2979 30.8572 20.3011 30.8534 20.3049L30.7157 20.4425C30.7115 20.4468 30.7077 20.4521 30.7034 20.4565C30.6991 20.4608 30.6938 20.4645 30.6895 20.4688L30.6369 20.5214C30.6325 20.5257 30.6289 20.5309 30.6245 20.5353C30.6201 20.5397 30.615 20.5433 30.6106 20.5477C30.6061 20.5521 30.6012 20.5571 30.5967 20.5616C30.5923 20.566 30.5887 20.5711 30.5843 20.5755C30.5799 20.5799 30.5748 20.5835 30.5704 20.5879L30.4312 20.727C30.4265 20.7318 30.4221 20.7377 30.4173 20.7425C30.4126 20.7473 30.4066 20.7516 30.4019 20.7564L30.2101 20.9482C30.2052 20.953 30.2011 20.9587 30.1962 20.9636C30.1913 20.9685 30.1856 20.9727 30.1807 20.9775L29.8313 21.327C29.8259 21.3324 29.8213 21.3386 29.8158 21.344C29.8104 21.3494 29.8042 21.354 29.7988 21.3594L29.5282 21.63C29.5225 21.6358 29.517 21.6428 29.5112 21.6486C29.5055 21.6543 29.4984 21.6598 29.4927 21.6656L29.4587 21.6996C29.4528 21.7054 29.4475 21.7123 29.4416 21.7182C29.4358 21.724 29.4289 21.7293 29.4231 21.7352L29.3705 21.7878C29.3646 21.7936 29.3594 21.8004 29.3535 21.8063C29.3476 21.8122 29.3409 21.8174 29.335 21.8233C29.329 21.8292 29.3239 21.8359 29.318 21.8419C29.312 21.8478 29.3053 21.8529 29.2994 21.8589L29.2453 21.913C29.2394 21.9189 29.2342 21.9256 29.2283 21.9316C29.2223 21.9375 29.2156 21.9426 29.2097 21.9486C29.2037 21.9546 29.1972 21.9611 29.1912 21.9671C29.1852 21.973 29.1801 21.9797 29.1742 21.9857C29.1682 21.9916 29.1615 21.9968 29.1556 22.0027L29.0999 22.0583C29.094 22.0643 29.0889 22.071 29.0829 22.0769C29.077 22.0828 29.0703 22.088 29.0644 22.0939L28.8788 22.2795C28.8726 22.2857 28.8665 22.2933 28.8603 22.2996C28.854 22.3058 28.8464 22.3118 28.8402 22.3181L28.7845 22.3738C28.7782 22.3801 28.7723 22.3876 28.7659 22.3939C28.7596 22.4002 28.7522 22.4061 28.7458 22.4124L28.6129 22.5454C28.6065 22.5518 28.6007 22.5591 28.5943 22.5655C28.5879 22.5719 28.5806 22.5776 28.5742 22.5841C28.5678 22.5905 28.5621 22.5977 28.5557 22.6042C28.5493 22.6106 28.542 22.6163 28.5356 22.6227L28.4969 22.6614C28.4905 22.6678 28.4848 22.675 28.4784 22.6815C28.4719 22.6879 28.4647 22.6936 28.4583 22.7L28.3995 22.7588C28.3931 22.7652 28.3874 22.7725 28.3809 22.7789C28.3745 22.7853 28.3673 22.791 28.3608 22.7974L28.3407 22.8175C28.3343 22.824 28.3286 22.8312 28.3222 22.8376C28.3157 22.8441 28.3085 22.8497 28.3021 22.8562L28.183 22.9753C28.1766 22.9817 28.1709 22.9889 28.1645 22.9954C28.158 23.0018 28.1508 23.0075 28.1444 23.0139L28.0238 23.1345C28.0173 23.141 28.0117 23.1482 28.0052 23.1546C27.9985 23.1613 27.9918 23.168 27.9851 23.1747C27.9787 23.1812 27.9715 23.1868 27.965 23.1933L27.8645 23.2938C27.8578 23.3005 27.8511 23.3087 27.8444 23.3154C27.8377 23.3221 27.831 23.3288 27.8243 23.3355C27.8176 23.3423 27.8094 23.3489 27.8027 23.3556L27.6619 23.4963C27.6552 23.5031 27.6486 23.5112 27.6418 23.518C27.6351 23.5247 27.627 23.5313 27.6202 23.5381L27.4578 23.7004C27.451 23.7072 27.4445 23.7153 27.4377 23.7221C27.4309 23.7289 27.4229 23.7353 27.4161 23.7422L27.314 23.8442C27.3072 23.8511 27.3008 23.859 27.2939 23.8659C27.2871 23.8727 27.2792 23.8791 27.2723 23.886C27.2656 23.8927 27.2589 23.8994 27.2522 23.9061C27.2453 23.9129 27.239 23.9209 27.2321 23.9277C27.2252 23.9346 27.2173 23.941 27.2104 23.9478C27.2037 23.9545 27.197 23.9612 27.1903 23.9679C27.1835 23.9748 27.1771 23.9827 27.1702 23.9896C27.1634 23.9965 27.1555 24.0028 27.1486 24.0097L27.0249 24.1334C27.018 24.1403 27.0117 24.1481 27.0048 24.155C26.9979 24.1619 26.9901 24.1682 26.9832 24.1751L26.9213 24.237C26.9144 24.2439 26.9081 24.2517 26.9012 24.2586C26.8943 24.2655 26.8865 24.2718 26.8796 24.2787L26.776 24.3823C26.769 24.3892 26.7628 24.397 26.7559 24.404C26.7489 24.4109 26.7411 24.4171 26.7342 24.4241L26.5889 24.5694C26.5819 24.5763 26.5757 24.5841 26.5688 24.5911C26.5618 24.598 26.5541 24.6042 26.5471 24.6112L26.36 24.7983C26.3531 24.8052 26.3469 24.813 26.3399 24.8199C26.333 24.8268 26.3252 24.8331 26.3183 24.84L26.2147 24.9436C26.2078 24.9505 26.2015 24.9583 26.1946 24.9652C26.1877 24.9722 26.1799 24.9784 26.1729 24.9853L26.0693 25.0889C26.0624 25.0959 26.0561 25.1037 26.0492 25.1106C26.0423 25.1175 26.0345 25.1238 26.0276 25.1307L25.9657 25.1925C25.9588 25.1994 25.9525 25.2073 25.9456 25.2142C25.9387 25.2211 25.9309 25.2274 25.924 25.2343L25.5946 25.5636C25.5878 25.5705 25.5814 25.5784 25.5745 25.5853C25.5677 25.5921 25.5597 25.5986 25.5529 25.6054L25.4106 25.7476C25.4038 25.7544 25.3973 25.7625 25.3905 25.7693C25.3838 25.7761 25.3757 25.7826 25.3689 25.7894L25.2684 25.8899C25.2616 25.8966 25.255 25.9048 25.2483 25.9115C25.2415 25.9183 25.2334 25.9249 25.2266 25.9316L24.9251 26.2331C24.9187 26.2396 24.913 26.2468 24.9066 26.2532C24.9001 26.2597 24.8929 26.2654 24.8865 26.2718L24.8061 26.3522C24.7996 26.3587 24.794 26.3659 24.7875 26.3723C24.7811 26.3787 24.7738 26.3844 24.7674 26.3909L24.5509 26.6073C24.5445 26.6138 24.5388 26.621 24.5324 26.6274C24.5259 26.6339 24.5187 26.6396 24.5123 26.646C24.5058 26.6524 24.5002 26.6597 24.4937 26.6661C24.4873 26.6725 24.48 26.6782 24.4736 26.6846L24.435 26.7233C24.4286 26.7297 24.4228 26.737 24.4164 26.7434C24.41 26.7498 24.4027 26.7555 24.3963 26.762L24.0933 27.065C24.087 27.0713 24.0809 27.0789 24.0747 27.0851C24.0685 27.0913 24.0623 27.0975 24.0562 27.1037C24.0499 27.1099 24.0423 27.116 24.0361 27.1222L23.9804 27.1779C23.9745 27.1838 23.9693 27.1905 23.9634 27.1964C23.9572 27.2026 23.951 27.2089 23.9448 27.215C23.9389 27.2209 23.9322 27.2261 23.9263 27.232L23.852 27.3062C23.8461 27.3122 23.841 27.3189 23.835 27.3248C23.8291 27.3307 23.8224 27.3359 23.8165 27.3418C23.8104 27.3478 23.804 27.3543 23.7979 27.3603C23.3342 27.8241 22.5825 27.8241 22.1187 27.3603C21.655 26.8966 21.655 26.1449 22.1187 25.6811C22.1248 25.6751 22.1312 25.6686 22.1373 25.6626C22.1432 25.6567 22.1484 25.65 22.1543 25.644C22.1602 25.6381 22.1669 25.633 22.1729 25.627L22.2471 25.5528C22.253 25.5469 22.2581 25.5402 22.2641 25.5343C22.2702 25.5281 22.2765 25.5219 22.2826 25.5157C22.2886 25.5098 22.2953 25.5046 22.3012 25.4987L22.3569 25.443C22.3631 25.4368 22.3692 25.4291 22.3754 25.4229C22.3816 25.4167 22.3878 25.4106 22.394 25.4044C22.4002 25.3981 22.4078 25.3921 22.4141 25.3858L22.7171 25.0828C22.7235 25.0763 22.7293 25.0691 22.7357 25.0627C22.7421 25.0563 22.7494 25.0505 22.7558 25.0441L22.7944 25.0054C22.8008 24.999 22.8066 24.9918 22.813 24.9853C22.8194 24.9789 22.8266 24.9732 22.8331 24.9668C22.8395 24.9604 22.8452 24.9531 22.8516 24.9467C22.8581 24.9403 22.8653 24.9346 22.8717 24.9281L23.0882 24.7117C23.0946 24.7052 23.1003 24.698 23.1068 24.6916C23.1132 24.6851 23.1204 24.6795 23.1269 24.673L23.2073 24.5926C23.2137 24.5862 23.2194 24.5789 23.2258 24.5725C23.2323 24.5661 23.2395 24.5604 23.2459 24.5539L23.5474 24.2524C23.5542 24.2457 23.5608 24.2375 23.5675 24.2308C23.5743 24.224 23.5824 24.2174 23.5892 24.2107L23.6897 24.1102C23.6965 24.1034 23.703 24.0953 23.7098 24.0885C23.7166 24.0817 23.7246 24.0752 23.7314 24.0684L23.8737 23.9262C23.8805 23.9194 23.887 23.9113 23.8938 23.9045C23.9006 23.8977 23.9086 23.8913 23.9154 23.8844L24.2448 23.5551C24.2517 23.5482 24.258 23.5403 24.2649 23.5334C24.2718 23.5265 24.2796 23.5202 24.2865 23.5133L24.3484 23.4515C24.3553 23.4446 24.3616 23.4368 24.3685 23.4298C24.3754 23.4229 24.3832 23.4167 24.3901 23.4097L24.4937 23.3061C24.5007 23.2992 24.5069 23.2914 24.5138 23.2845C24.5207 23.2776 24.5286 23.2713 24.5355 23.2644L24.6391 23.1608C24.646 23.1539 24.6523 23.1461 24.6592 23.1392C24.6661 23.1322 24.6739 23.126 24.6808 23.1191L24.8679 22.932C24.8749 22.925 24.8811 22.9172 24.888 22.9103C24.8949 22.9034 24.9027 22.8971 24.9097 22.8902L25.055 22.7449C25.0619 22.7379 25.0682 22.7301 25.0751 22.7232C25.082 22.7163 25.0898 22.71 25.0968 22.7031L25.2004 22.5995C25.2073 22.5926 25.2135 22.5848 25.2205 22.5779C25.2274 22.571 25.2352 22.5647 25.2421 22.5578L25.304 22.4959C25.3109 22.489 25.3172 22.4812 25.3241 22.4743C25.331 22.4674 25.3388 22.4611 25.3457 22.4542L25.4694 22.3305C25.4763 22.3236 25.4826 22.3157 25.4895 22.3088C25.4964 22.302 25.5043 22.2956 25.5111 22.2887C25.5178 22.282 25.5245 22.2753 25.5312 22.2686C25.5381 22.2618 25.5445 22.2538 25.5513 22.247C25.5582 22.2401 25.5661 22.2337 25.573 22.2269C25.5797 22.2202 25.5864 22.2135 25.5931 22.2068C25.6 22.1999 25.6063 22.192 25.6132 22.1851C25.62 22.1783 25.628 22.1719 25.6348 22.165L25.7369 22.063C25.7437 22.0561 25.7502 22.0482 25.757 22.0413C25.7638 22.0345 25.7718 22.028 25.7786 22.0212L25.941 21.8589C25.9478 21.8521 25.9543 21.844 25.9611 21.8372C25.9679 21.8304 25.976 21.8239 25.9827 21.8171L26.1235 21.6764C26.1302 21.6697 26.1368 21.6615 26.1436 21.6548C26.1503 21.6481 26.157 21.6414 26.1637 21.6347C26.1704 21.628 26.1786 21.6213 26.1853 21.6146L26.2858 21.5141C26.2923 21.5076 26.2979 21.5004 26.3044 21.494L26.3245 21.4739C26.3309 21.4674 26.3381 21.4618 26.3446 21.4553L26.4652 21.3347C26.4716 21.3283 26.4773 21.321 26.4837 21.3146C26.4902 21.3082 26.4974 21.3025 26.5038 21.2961L26.6229 21.177C26.6293 21.1705 26.635 21.1633 26.6414 21.1569C26.6479 21.1505 26.6551 21.1448 26.6615 21.1383C26.6681 21.1318 26.6751 21.1248 26.6816 21.1182C26.6881 21.1118 26.6938 21.1046 26.7002 21.0981C26.7066 21.0917 26.7139 21.086 26.7203 21.0796L26.7791 21.0208C26.7855 21.0144 26.7912 21.0072 26.7976 21.0007C26.8041 20.9943 26.8113 20.9886 26.8177 20.9822L26.8564 20.9435C26.8628 20.9371 26.8685 20.9298 26.8749 20.9234C26.8813 20.917 26.8886 20.9113 26.895 20.9049C26.9014 20.8984 26.9072 20.8912 26.9136 20.8848C26.92 20.8784 26.9273 20.8726 26.9337 20.8662L27.0666 20.7332C27.073 20.7269 27.0789 20.7194 27.0852 20.7131C27.0915 20.7068 27.099 20.7009 27.1053 20.6946L27.161 20.6389C27.1672 20.6326 27.1733 20.6251 27.1795 20.6188C27.1858 20.6126 27.1934 20.6065 27.1996 20.6003L27.3852 20.4147C27.3911 20.4088 27.3963 20.4021 27.4022 20.3962C27.4081 20.3902 27.4148 20.3851 27.4207 20.3791L27.4764 20.3235C27.4823 20.3176 27.4875 20.3108 27.4934 20.3049C27.4993 20.299 27.506 20.2938 27.512 20.2879C27.518 20.2819 27.5245 20.2754 27.5305 20.2694C27.5364 20.2634 27.5416 20.2567 27.5475 20.2508C27.5534 20.2449 27.5602 20.2397 27.5661 20.2338L27.6202 20.1797C27.6261 20.1737 27.6313 20.167 27.6372 20.1611C27.6431 20.1552 27.6498 20.15 27.6558 20.1441C27.6617 20.1382 27.6669 20.1315 27.6728 20.1256C27.6787 20.1197 27.6854 20.1144 27.6913 20.1086L27.7439 20.056C27.7497 20.0501 27.7551 20.0433 27.7609 20.0374C27.7667 20.0316 27.7736 20.0262 27.7795 20.0204L27.8135 19.9864C27.8192 19.9806 27.8247 19.9736 27.8305 19.9678C27.8363 19.9621 27.8433 19.9566 27.849 19.9508L28.0083 19.7916H4.75C4.09416 19.7916 3.5625 19.2599 3.5625 18.6041C3.5625 17.9482 4.09416 17.4166 4.75 17.4166H28.0083L22.1187 11.527C21.655 11.0633 21.655 10.3116 22.1187 9.84781Z" fill="#6598CC"/>
</svg>
