<svg width="26" height="26" viewBox="0 0 26 26" fill="none" xmlns="http://www.w3.org/2000/svg">
<path d="M7.60131 12.4487C8.90131 15.0035 10.9958 17.098 13.5506 18.398L15.5367 16.4118C15.7895 16.1591 16.1416 16.0868 16.4576 16.1862C17.4687 16.5202 18.552 16.7007 19.6805 16.7007C19.9199 16.7007 20.1495 16.7959 20.3188 16.9652C20.4881 17.1345 20.5833 17.3641 20.5833 17.6035V20.7632C20.5833 21.0027 20.4881 21.2323 20.3188 21.4016C20.1495 21.5709 19.9199 21.666 19.6805 21.666C15.6101 21.666 11.7065 20.0491 8.82835 17.1709C5.95019 14.2928 4.33325 10.3891 4.33325 6.31879C4.33325 6.07936 4.42837 5.84974 4.59767 5.68043C4.76697 5.51113 4.9966 5.41602 5.23603 5.41602H8.39575C8.63518 5.41602 8.86481 5.51113 9.03411 5.68043C9.20342 5.84974 9.29853 6.07936 9.29853 6.31879C9.29853 7.44727 9.47908 8.5306 9.81311 9.54171C9.91242 9.85768 9.8402 10.2098 9.58742 10.4625L7.60131 12.4487Z" fill="#222529"/>
</svg>
