<svg width="40" height="40" fill="none" xmlns="http://www.w3.org/2000/svg"><path d="M34.433 19.736l-6.516-5.132v-3.496a2.616 2.616 0 00-.697-1.906 2.729 2.729 0 00-1.867-.868H9.205a2.728 2.728 0 00-1.85.877 2.624 2.624 0 00-.686 1.897v13.87a2.73 2.73 0 00.445 1.558c.302.465.74.83 1.255 1.05a4.083 4.083 0 00.38 3.858c.379.564.892 1.03 1.495 1.357a4.32 4.32 0 003.956.083 4.226 4.226 0 001.553-1.293 4.08 4.08 0 00.549-3.838h9.009a4.08 4.08 0 00.514 3.808c.392.548.913.995 1.519 1.303a4.322 4.322 0 003.922 0 4.224 4.224 0 001.519-1.303 4.08 4.08 0 00.515-3.808h.283c.376 0 .736-.146 1.002-.406.265-.26.414-.613.414-.981v-5.548a1.364 1.364 0 00-.155-.605 1.395 1.395 0 00-.411-.477zm-2.267 1.747v3.496h-4.25v-6.825l4.25 3.33zM13.752 29.14c0 .274-.083.543-.239.77a1.411 1.411 0 01-.636.512 1.445 1.445 0 01-1.543-.301 1.36 1.36 0 01-.307-1.512 1.39 1.39 0 01.521-.622 1.438 1.438 0 011.789.172c.266.26.415.613.415.981zm7.082-4.161H9.502v-13.87h15.582v13.87h-4.25zm9.916 4.161c0 .274-.083.543-.239.77a1.41 1.41 0 01-.636.512 1.444 1.444 0 01-1.543-.301 1.36 1.36 0 01-.307-1.512 1.39 1.39 0 01.521-.622 1.438 1.438 0 011.789.172c.266.26.415.613.415.981z" fill="#6598CC" stroke="#fff" stroke-width=".7"/></svg>