<svg width="38" height="43" viewBox="0 0 38 43" fill="none" xmlns="http://www.w3.org/2000/svg">
<path d="M28.2458 2H9.75417C7.50056 2 6.37472 2 5.46472 2.31694C4.60679 2.62116 3.83053 3.11904 3.19621 3.7719C2.5619 4.42476 2.0866 5.21505 1.80722 6.08139C1.5 7.01861 1.5 8.1775 1.5 10.4972V37.7272C1.5 39.3956 3.41528 40.2822 4.62667 39.1739C4.96653 38.8599 5.41226 38.6854 5.875 38.6854C6.33773 38.6854 6.78347 38.8599 7.12333 39.1739L8.0625 40.0333C8.6579 40.5839 9.43904 40.8897 10.25 40.8897C11.061 40.8897 11.8421 40.5839 12.4375 40.0333C13.0329 39.4827 13.814 39.1769 14.625 39.1769C15.436 39.1769 16.2171 39.4827 16.8125 40.0333C17.4079 40.5839 18.189 40.8897 19 40.8897C19.811 40.8897 20.5921 40.5839 21.1875 40.0333C21.7829 39.4827 22.564 39.1769 23.375 39.1769C24.186 39.1769 24.9671 39.4827 25.5625 40.0333C26.1579 40.5839 26.939 40.8897 27.75 40.8897C28.561 40.8897 29.3421 40.5839 29.9375 40.0333L30.8767 39.1739C31.2165 38.8599 31.6623 38.6854 32.125 38.6854C32.5877 38.6854 33.0335 38.8599 33.3733 39.1739C34.5847 40.2822 36.5 39.3956 36.5 37.7272V10.4972C36.5 8.1775 36.5 7.01667 36.1928 6.08333C35.9138 5.21657 35.4387 4.42582 34.8043 3.77259C34.17 3.11935 33.3935 2.62123 32.5353 2.31694C31.6253 2 30.4994 2 28.2458 2Z" stroke="#6598CC" stroke-width="3"/>
<path d="M14.1387 18.3337L16.9173 21.4448L23.8609 13.667" stroke="#6598CC" stroke-width="3" stroke-linecap="round" stroke-linejoin="round"/>
<path d="M10.25 28.25H27.75" stroke="#6598CC" stroke-width="3" stroke-linecap="round"/>
</svg>
