<svg width="44" height="39" viewBox="0 0 44 39" fill="none" xmlns="http://www.w3.org/2000/svg">
<path d="M42.6501 17.6026L32.8762 9.90438V4.66123C32.9283 3.6104 32.5526 2.58224 31.8317 1.80219C31.1108 1.02213 30.1034 0.553847 29.0304 0.5H4.8082C3.74277 0.564415 2.74617 1.03728 2.03428 1.81616C1.3224 2.59504 0.952556 3.61721 1.00488 4.66123V25.4674C0.985163 26.2936 1.21713 27.1069 1.67123 27.8035C2.12532 28.5001 2.78097 29.0486 3.55459 29.3789C3.16328 30.3163 3.01078 31.3329 3.11023 32.3409C3.20969 33.3489 3.55812 34.3181 4.12545 35.1648C4.69279 36.0115 5.462 36.7104 6.3667 37.201C7.27141 37.6917 8.28445 37.9594 9.3184 37.9811C10.3523 38.0028 11.3762 37.7778 12.3015 37.3255C13.2268 36.8733 14.0259 36.2074 14.6298 35.3852C15.2336 34.5631 15.6241 33.6094 15.7676 32.6065C15.9111 31.6036 15.8032 30.5816 15.4532 29.6286H28.9667C28.6172 30.5714 28.5049 31.5828 28.6393 32.5771C28.7737 33.5714 29.1508 34.5193 29.7386 35.3406C30.3265 36.162 31.1078 36.8325 32.0164 37.2954C32.9251 37.7583 33.9342 38 34.9585 38C35.9827 38 36.9919 37.7583 37.9005 37.2954C38.8091 36.8325 39.5905 36.162 40.1783 35.3406C40.7662 34.5193 41.1433 33.5714 41.2777 32.5771C41.412 31.5828 41.2997 30.5714 40.9503 29.6286H41.3752C41.9388 29.6286 42.4792 29.4094 42.8777 29.0192C43.2761 28.629 43.5 28.0998 43.5 27.548V19.2255C43.4935 18.9096 43.4136 18.5992 43.2663 18.318C43.1191 18.0368 42.9083 17.7922 42.6501 17.6026ZM39.2505 20.2242V25.4674H32.8762V15.2307L39.2505 20.2242ZM11.6287 31.7092C11.6287 32.1207 11.504 32.523 11.2706 32.8651C11.0371 33.2073 10.7053 33.474 10.317 33.6315C9.92877 33.7889 9.50155 33.8301 9.08939 33.7499C8.67723 33.6696 8.29863 33.4714 8.00148 33.1804C7.70433 32.8895 7.50196 32.5187 7.41998 32.1151C7.33799 31.7115 7.38007 31.2932 7.54089 30.913C7.70171 30.5328 7.97404 30.2079 8.32346 29.9792C8.67287 29.7506 9.08367 29.6286 9.50391 29.6286C10.0674 29.6286 10.6079 29.8478 11.0063 30.238C11.4048 30.6282 11.6287 31.1574 11.6287 31.7092ZM22.2524 25.4674H5.2544V4.66123H28.6267V25.4674H22.2524ZM37.1257 31.7092C37.1257 32.1207 37.0011 32.523 36.7676 32.8651C36.5342 33.2073 36.2023 33.474 35.8141 33.6315C35.4258 33.7889 34.9986 33.8301 34.5865 33.7499C34.1743 33.6696 33.7957 33.4714 33.4985 33.1804C33.2014 32.8895 32.999 32.5187 32.917 32.1151C32.8351 31.7115 32.8771 31.2932 33.038 30.913C33.1988 30.5328 33.4711 30.2079 33.8205 29.9792C34.1699 29.7506 34.5807 29.6286 35.001 29.6286C35.5645 29.6286 36.1049 29.8478 36.5034 30.238C36.9019 30.6282 37.1257 31.1574 37.1257 31.7092Z" fill="#6598CC" stroke="white" stroke-width="0.7"/>
</svg>
