<svg xmlns="http://www.w3.org/2000/svg" width="20" height="16" fill="none"><path d="M7 14h12M1 14h2" stroke="#F3F7FA" stroke-linecap="round"/><path fill-rule="evenodd" clip-rule="evenodd" d="M5 16a2 2 0 100-4 2 2 0 000 4zm0-1a1 1 0 100-2 1 1 0 000 2z" fill="#F3F7FA"/><path d="M7 2h12M1 2h2" stroke="#F3F7FA" stroke-linecap="round"/><path fill-rule="evenodd" clip-rule="evenodd" d="M5 4a2 2 0 100-4 2 2 0 000 4zm0-1a1 1 0 100-2 1 1 0 000 2z" fill="#F3F7FA"/><path d="M17 8h2M1 8h12" stroke="#F3F7FA" stroke-linecap="round"/><path fill-rule="evenodd" clip-rule="evenodd" d="M15 10a2 2 0 100-4 2 2 0 000 4zm0-1a1 1 0 100-2 1 1 0 000 2z" fill="#F3F7FA"/></svg>