<svg width="23" height="16" viewBox="0 0 23 16" fill="none" xmlns="http://www.w3.org/2000/svg">
<path d="M7.86594 12.5078L20.4715 0.427617C20.7689 0.142539 21.116 0 21.5126 0C21.9093 0 22.2563 0.142539 22.5538 0.427617C22.8513 0.712695 23 1.05146 23 1.44392C23 1.83638 22.8513 2.17467 22.5538 2.4588L8.9071 15.5724C8.60963 15.8575 8.26257 16 7.86594 16C7.4693 16 7.12225 15.8575 6.82477 15.5724L0.429051 9.44321C0.131576 9.15813 -0.0112125 8.81984 0.000686481 8.42833C0.0125855 8.03682 0.167768 7.69805 0.466235 7.41203C0.764702 7.126 1.1182 6.98346 1.52674 6.98441C1.93527 6.98536 2.28827 7.1279 2.58575 7.41203L7.86594 12.5078Z" fill="#ECA740"/>
</svg>
