<svg width="346" height="61" fill="none" xmlns="http://www.w3.org/2000/svg"><path d="M40.133 46.58l-.4-9.76L71.493 4.1h9.12l-24.56 25.92-4.48 4.96-11.44 11.6zm-7.04 13.52v-56h8v56h-8zm39.68 0l-22.96-26.72 5.36-5.92 26.96 32.64h-9.36zm20.22 0v-56h8v49.04h30.32v6.96h-38.32zm49.9 0v-56h8v56h-8zm27.166 0v-56h6.56l25.12 42.32h-3.52l24.8-42.32h6.56l.08 56h-7.68l-.08-43.92h1.84l-22.08 37.12h-3.68l-22.24-37.12h2V60.1h-7.68zm70.326 0l25.36-56h7.92l25.44 56h-8.4l-22.64-51.52h3.2l-22.64 51.52h-8.24zm10.8-14l2.16-6.4h31.52l2.32 6.4h-36zm66.981 14V11.06h-19.2V4.1h46.32v6.96h-19.2V60.1h-7.92zm-312.473 0v-30h5.76v30h-5.76z" fill="#000"/><path fill-rule="evenodd" clip-rule="evenodd" d="M15.195 12.51C18.489 7.06 14.563.1 8.193.1S-2.103 7.059 1.191 12.51l6.375 10.552a.732.732 0 001.254 0l6.375-10.551zm-7.002 3.855l3.578-5.923C13.455 7.656 11.448 4.1 8.193 4.1s-5.261 3.556-3.578 6.342l3.578 5.923z" fill="#000"/></svg>