<svg width="26" height="29" fill="none" xmlns="http://www.w3.org/2000/svg"><g stroke="#6598CC" stroke-width="1.5"><path d="M19.164 1.666H6.836c-1.503 0-2.253 0-2.86.211a3.948 3.948 0 00-2.438 2.51c-.205.625-.205 1.397-.205 2.944v18.153c0 1.112 1.277 1.703 2.084.965a1.227 1.227 0 011.665 0l.626.573a2.148 2.148 0 002.917 0 2.148 2.148 0 012.916 0 2.148 2.148 0 002.917 0 2.148 2.148 0 012.917 0 2.148 2.148 0 002.916 0l.627-.573a1.226 1.226 0 011.664 0c.808.738 2.084.147 2.084-.965V7.331c0-1.547 0-2.32-.204-2.943a3.947 3.947 0 00-2.439-2.51c-.607-.212-1.357-.212-2.86-.212z"/><path d="M9.759 12.555l1.852 2.074 4.63-5.186" stroke-linecap="round" stroke-linejoin="round"/><path d="M7.166 19.166h11.667" stroke-linecap="round"/></g></svg>