<svg width="43" height="38" viewBox="0 0 43 38" fill="none" xmlns="http://www.w3.org/2000/svg">
<path d="M24.7987 16.0233C24.6304 16.0221 24.4684 16.0901 24.3482 16.2124C24.228 16.3347 24.1592 16.5015 24.157 16.6762V21.5558C24.1592 21.7309 24.2283 21.898 24.349 22.0204C24.4697 22.1428 24.6322 22.2105 24.8009 22.2087H38.9597C39.1285 22.2105 39.291 22.1428 39.4117 22.0204C39.5324 21.898 39.6014 21.7309 39.6036 21.5558V16.6762C39.6014 16.5011 39.5324 16.334 39.4117 16.2116C39.291 16.0892 39.1285 16.0215 38.9597 16.0233H24.7987ZM33.4815 0.502206C35.4408 0.599268 36.8496 1.00075 37.7421 1.85225C38.624 2.69492 39.0766 3.91481 39.1659 5.52956V10.1554C39.1614 10.5494 39.0065 10.9254 38.7351 11.2008C38.4638 11.4763 38.0982 11.6287 37.7188 11.6246C37.5307 11.6269 37.344 11.5908 37.1693 11.5182C36.9947 11.4456 36.8356 11.3381 36.701 11.2016C36.5664 11.0652 36.459 10.9026 36.385 10.7231C36.311 10.5436 36.2717 10.3507 36.2695 10.1554L36.2716 5.61339C36.2249 4.77513 36.0315 4.25452 35.7552 3.98981C35.4875 3.73392 34.6715 3.5045 33.4114 3.43832H5.62488C4.48375 3.48244 3.74213 3.70745 3.383 4.02731C3.10675 4.27217 2.8985 4.94719 2.89638 6.11414L2.89 32.0781C2.99625 33.212 3.23637 33.9687 3.5445 34.3459C3.77825 34.6326 4.50288 34.9194 5.56962 35.0606H33.4411C34.7459 35.0871 35.5151 34.8841 35.7744 34.6128C36.0612 34.3106 36.2695 33.5164 36.2695 32.2171V27.706C36.2695 26.8964 36.9176 26.2368 37.7188 26.2368C38.5177 26.2368 39.1659 26.8964 39.1659 27.706V32.2171C39.1659 34.2025 38.7749 35.6871 37.859 36.6511C36.9155 37.6438 35.4152 38.0408 33.4114 37.9967L5.3975 37.9901C3.49137 37.7607 2.125 37.218 1.31112 36.2187C0.57375 35.3143 0.163625 34.0238 0 32.2193V6.11193C0.00425 4.17952 0.4505 2.7258 1.47475 1.81695C2.414 0.978691 3.76975 0.57059 5.56962 0.5H33.4815V0.502206ZM38.9597 13.0849C40.9147 13.0849 42.5 14.6931 42.5 16.6762V21.5558C42.5 23.5389 40.9147 25.1471 38.9597 25.1471H24.8009C22.8459 25.1471 21.2606 23.5367 21.2606 21.5558V16.6762C21.2606 14.6931 22.8459 13.0849 24.8009 13.0849H38.9597ZM28.3411 17.3645C27.3636 17.3645 26.571 18.1586 26.571 19.1359C26.571 20.1153 27.3636 20.9072 28.3411 20.9072C29.3186 20.9072 30.1112 20.1131 30.1112 19.1359C30.1112 18.1564 29.3186 17.3623 28.3411 17.3623V17.3645Z" fill="#6598CC"/>
</svg>
