<svg width="26" height="26" viewBox="0 0 26 26" fill="none" xmlns="http://www.w3.org/2000/svg">
<path d="M7.60138 12.4487C8.90138 15.0035 10.9958 17.098 13.5507 18.398L15.5368 16.4118C15.7896 16.1591 16.1417 16.0868 16.4576 16.1862C17.4687 16.5202 18.5521 16.7007 19.6806 16.7007C19.92 16.7007 20.1496 16.7959 20.3189 16.9652C20.4882 17.1345 20.5833 17.3641 20.5833 17.6035V20.7632C20.5833 21.0027 20.4882 21.2323 20.3189 21.4016C20.1496 21.5709 19.92 21.666 19.6806 21.666C15.6102 21.666 11.7066 20.0491 8.82843 17.1709C5.95026 14.2928 4.33333 10.3891 4.33333 6.31879C4.33333 6.07936 4.42844 5.84974 4.59775 5.68043C4.76705 5.51113 4.99667 5.41602 5.23611 5.41602H8.39583C8.63526 5.41602 8.86488 5.51113 9.03419 5.68043C9.20349 5.84974 9.29861 6.07936 9.29861 6.31879C9.29861 7.44727 9.47916 8.5306 9.81319 9.54171C9.91249 9.85768 9.84027 10.2098 9.58749 10.4625L7.60138 12.4487Z" fill="#222529"/>
</svg>
