<svg width="40" height="40" fill="none" xmlns="http://www.w3.org/2000/svg"><mask id="a" maskUnits="userSpaceOnUse" x="5.666" y="5.666" width="28" height="28" fill="#000"><path fill="#fff" d="M5.666 5.666h28v28h-28z"/><path d="M27.084 23.537a1.283 1.283 0 00-1.53-.175l-.416-1.692v-.07a.418.418 0 00-.083-.121l-.588-.588a1.249 1.249 0 00-1.77 0l-.296-.3 5.516-5.57a.416.416 0 01.375-.113 4.108 4.108 0 001.921-.046 4.213 4.213 0 002.97-2.97 4.086 4.086 0 00.113-1.521.834.834 0 00-1.425-.488l-1.158 1.184a.419.419 0 01-.592 0l-1.166-1.18a.416.416 0 01-.121-.304.417.417 0 01.125-.3L30.12 8.1a.834.834 0 00.196-.867.833.833 0 00-.687-.541 4.167 4.167 0 00-4.492 3.087 4.087 4.087 0 00-.046 1.917.416.416 0 01-.091.387l-5.588 5.558-6.816-6.808-.217-1.1a1.25 1.25 0 00-.342-.642L9.86 6.912a.833.833 0 00-1.18 0L6.914 8.68a.833.833 0 000 1.18l2.175 2.178c.176.175.399.294.642.342l1.1.217 6.812 6.816L12.084 25a.417.417 0 01-.375.112 4.11 4.11 0 00-1.92.046 4.213 4.213 0 00-2.984 2.95 4.092 4.092 0 00-.113 1.52.834.834 0 00.555.688.833.833 0 00.87-.2l1.159-1.183a.415.415 0 01.591 0l1.18 1.179a.416.416 0 01-.005.592L9.88 31.887a.833.833 0 00.491 1.42 4.166 4.166 0 004.492-3.087 4.086 4.086 0 00.046-1.916.416.416 0 01.092-.388l5.587-5.558.3.296a1.25 1.25 0 000 1.77l.588.576a.416.416 0 00.12.083h.071l1.688.417a1.25 1.25 0 00.183 1.583l5.896 5.883a1.25 1.25 0 001.767 0l1.766-1.767a1.25 1.25 0 000-1.766l-5.883-5.896zM25.57 12.658a1.25 1.25 0 00.338-1.137 3.291 3.291 0 01.907-3.037c.42-.42.944-.72 1.518-.872a3.154 3.154 0 011.212-.087l-1.179 1.183a1.249 1.249 0 000 1.771l1.18 1.187a1.248 1.248 0 001.77 0l1.184-1.204c.037.405 0 .814-.113 1.204a3.366 3.366 0 01-2.375 2.375 3.236 3.236 0 01-1.533.034 1.25 1.25 0 00-1.142.337L21.768 20 20 18.233l5.57-5.575zM14.43 27.341a1.25 1.25 0 00-.338 1.138 3.291 3.291 0 01-.033 1.52 3.364 3.364 0 01-2.375 2.375 3.155 3.155 0 01-1.212.088l1.162-1.188a1.25 1.25 0 000-1.766l-1.18-1.175a1.252 1.252 0 00-1.77 0l-1.162 1.2a3.262 3.262 0 01.091-1.2 3.367 3.367 0 012.388-2.392 3.292 3.292 0 011.533-.033 1.25 1.25 0 001.142-.338L18.234 20 20 21.766l-5.571 5.575zm9.108-5.987a.414.414 0 01.296.12l.296.296-2.359 2.359-.295-.296a.417.417 0 010-.588l1.77-1.77a.416.416 0 01.292-.121zM9.268 7.5l.733.737L8.238 10l-.737-.734L9.267 7.5zm.416 3.946L8.53 10.3l1.77-1.771 1.146 1.15c.06.058.1.132.117.212l.2 1.009-.862.862-1.009-.2a.417.417 0 01-.212-.116h.004zm1.946.766l.587-.587 9.867 9.85-.608.608-9.846-9.87zm12.866 10.375L24.851 24l-.834.833-1.412-.354 1.891-1.892zm7.884 8.02l-1.771 1.772a.417.417 0 01-.588 0l-5.891-5.896a.416.416 0 010-.588l1.766-1.766a.416.416 0 01.588 0l5.896 5.891a.418.418 0 010 .588z"/></mask><path d="M27.084 23.537a1.283 1.283 0 00-1.53-.175l-.416-1.692v-.07a.418.418 0 00-.083-.121l-.588-.588a1.249 1.249 0 00-1.77 0l-.296-.3 5.516-5.57a.416.416 0 01.375-.113 4.108 4.108 0 001.921-.046 4.213 4.213 0 002.97-2.97 4.086 4.086 0 00.113-1.521.834.834 0 00-1.425-.488l-1.158 1.184a.419.419 0 01-.592 0l-1.166-1.18a.416.416 0 01-.121-.304.417.417 0 01.125-.3L30.12 8.1a.834.834 0 00.196-.867.833.833 0 00-.687-.541 4.167 4.167 0 00-4.492 3.087 4.087 4.087 0 00-.046 1.917.416.416 0 01-.091.387l-5.588 5.558-6.816-6.808-.217-1.1a1.25 1.25 0 00-.342-.642L9.86 6.912a.833.833 0 00-1.18 0L6.914 8.68a.833.833 0 000 1.18l2.175 2.178c.176.175.399.294.642.342l1.1.217 6.812 6.816L12.084 25a.417.417 0 01-.375.112 4.11 4.11 0 00-1.92.046 4.213 4.213 0 00-2.984 2.95 4.092 4.092 0 00-.113 1.52.834.834 0 00.555.688.833.833 0 00.87-.2l1.159-1.183a.415.415 0 01.591 0l1.18 1.179a.416.416 0 01-.005.592L9.88 31.887a.833.833 0 00.491 1.42 4.166 4.166 0 004.492-3.087 4.086 4.086 0 00.046-1.916.416.416 0 01.092-.388l5.587-5.558.3.296a1.25 1.25 0 000 1.77l.588.576a.416.416 0 00.12.083h.071l1.688.417a1.25 1.25 0 00.183 1.583l5.896 5.883a1.25 1.25 0 001.767 0l1.766-1.767a1.25 1.25 0 000-1.766l-5.883-5.896zM25.57 12.658a1.25 1.25 0 00.338-1.137 3.291 3.291 0 01.907-3.037c.42-.42.944-.72 1.518-.872a3.154 3.154 0 011.212-.087l-1.179 1.183a1.249 1.249 0 000 1.771l1.18 1.187a1.248 1.248 0 001.77 0l1.184-1.204c.037.405 0 .814-.113 1.204a3.366 3.366 0 01-2.375 2.375 3.236 3.236 0 01-1.533.034 1.25 1.25 0 00-1.142.337L21.768 20 20 18.233l5.57-5.575zM14.43 27.341a1.25 1.25 0 00-.338 1.138 3.291 3.291 0 01-.033 1.52 3.364 3.364 0 01-2.375 2.375 3.155 3.155 0 01-1.212.088l1.162-1.188a1.25 1.25 0 000-1.766l-1.18-1.175a1.252 1.252 0 00-1.77 0l-1.162 1.2a3.262 3.262 0 01.091-1.2 3.367 3.367 0 012.388-2.392 3.292 3.292 0 011.533-.033 1.25 1.25 0 001.142-.338L18.234 20 20 21.766l-5.571 5.575zm9.108-5.987a.414.414 0 01.296.12l.296.296-2.359 2.359-.295-.296a.417.417 0 010-.588l1.77-1.77a.416.416 0 01.292-.121zM9.268 7.5l.733.737L8.238 10l-.737-.734L9.267 7.5zm.416 3.946L8.53 10.3l1.77-1.771 1.146 1.15c.06.058.1.132.117.212l.2 1.009-.862.862-1.009-.2a.417.417 0 01-.212-.116h.004zm1.946.766l.587-.587 9.867 9.85-.608.608-9.846-9.87zm12.866 10.375L24.851 24l-.834.833-1.412-.354 1.891-1.892zm7.884 8.02l-1.771 1.772a.417.417 0 01-.588 0l-5.891-5.896a.416.416 0 010-.588l1.766-1.766a.416.416 0 01.588 0l5.896 5.891a.418.418 0 010 .588z" fill="#6598CC"/><path d="M27.084 23.537a1.283 1.283 0 00-1.53-.175l-.416-1.692v-.07a.418.418 0 00-.083-.121l-.588-.588a1.249 1.249 0 00-1.77 0l-.296-.3 5.516-5.57a.416.416 0 01.375-.113 4.108 4.108 0 001.921-.046 4.213 4.213 0 002.97-2.97 4.086 4.086 0 00.113-1.521.834.834 0 00-1.425-.488l-1.158 1.184a.419.419 0 01-.592 0l-1.166-1.18a.416.416 0 01-.121-.304.417.417 0 01.125-.3L30.12 8.1a.834.834 0 00.196-.867.833.833 0 00-.687-.541 4.167 4.167 0 00-4.492 3.087 4.087 4.087 0 00-.046 1.917.416.416 0 01-.091.387l-5.588 5.558-6.816-6.808-.217-1.1a1.25 1.25 0 00-.342-.642L9.86 6.912a.833.833 0 00-1.18 0L6.914 8.68a.833.833 0 000 1.18l2.175 2.178c.176.175.399.294.642.342l1.1.217 6.812 6.816L12.084 25a.417.417 0 01-.375.112 4.11 4.11 0 00-1.92.046 4.213 4.213 0 00-2.984 2.95 4.092 4.092 0 00-.113 1.52.834.834 0 00.555.688.833.833 0 00.87-.2l1.159-1.183a.415.415 0 01.591 0l1.18 1.179a.416.416 0 01-.005.592L9.88 31.887a.833.833 0 00.491 1.42 4.166 4.166 0 004.492-3.087 4.086 4.086 0 00.046-1.916.416.416 0 01.092-.388l5.587-5.558.3.296a1.25 1.25 0 000 1.77l.588.576a.416.416 0 00.12.083h.071l1.688.417a1.25 1.25 0 00.183 1.583l5.896 5.883a1.25 1.25 0 001.767 0l1.766-1.767a1.25 1.25 0 000-1.766l-5.883-5.896zM25.57 12.658a1.25 1.25 0 00.338-1.137 3.291 3.291 0 01.907-3.037c.42-.42.944-.72 1.518-.872a3.154 3.154 0 011.212-.087l-1.179 1.183a1.249 1.249 0 000 1.771l1.18 1.187a1.248 1.248 0 001.77 0l1.184-1.204c.037.405 0 .814-.113 1.204a3.366 3.366 0 01-2.375 2.375 3.236 3.236 0 01-1.533.034 1.25 1.25 0 00-1.142.337L21.768 20 20 18.233l5.57-5.575zM14.43 27.341a1.25 1.25 0 00-.338 1.138 3.291 3.291 0 01-.033 1.52 3.364 3.364 0 01-2.375 2.375 3.155 3.155 0 01-1.212.088l1.162-1.188a1.25 1.25 0 000-1.766l-1.18-1.175a1.252 1.252 0 00-1.77 0l-1.162 1.2a3.262 3.262 0 01.091-1.2 3.367 3.367 0 012.388-2.392 3.292 3.292 0 011.533-.033 1.25 1.25 0 001.142-.338L18.234 20 20 21.766l-5.571 5.575zm9.108-5.987a.414.414 0 01.296.12l.296.296-2.359 2.359-.295-.296a.417.417 0 010-.588l1.77-1.77a.416.416 0 01.292-.121zM9.268 7.5l.733.737L8.238 10l-.737-.734L9.267 7.5zm.416 3.946L8.53 10.3l1.77-1.771 1.146 1.15c.06.058.1.132.117.212l.2 1.009-.862.862-1.009-.2a.417.417 0 01-.212-.116h.004zm1.946.766l.587-.587 9.867 9.85-.608.608-9.846-9.87zm12.866 10.375L24.851 24l-.834.833-1.412-.354 1.891-1.892zm7.884 8.02l-1.771 1.772a.417.417 0 01-.588 0l-5.891-5.896a.416.416 0 010-.588l1.766-1.766a.416.416 0 01.588 0l5.896 5.891a.418.418 0 010 .588z" stroke="#6598CC" stroke-width=".4" mask="url(#a)"/></svg>