<svg width="62" height="64" fill="none" xmlns="http://www.w3.org/2000/svg"><path d="M14.26 10.771h3.503c.157-3.066 1.766-4.922 3.765-5.593 2.077-.7 5.014-.262 7.913 2.222l.88-.957-1.21-1.317-.338-.368.368-.338c.33-.305.668-.592 1.01-.863C26.923 1.413 23.415.85 20.413 1.86l-6.153 8.91zm0 0c.168-4.42 2.578-7.707 6.153-8.911l-6.153 8.91zm9.756 13.879c-2.085-1.548-4.384-3.477-6.218-5.603h0c-1.8-2.084-3.356-4.596-3.532-7.276h3.514c.175 1.474 1.103 3.176 2.668 4.99 1.595 1.849 3.66 3.598 5.628 5.06l-2.06 2.829zm.807.59l1.031-1.413v-.001l1.03-1.414c1.032.747 1.738 1.232 2.309 1.532.488.256.887.382 1.307.433v3.511c-2.193-.143-3.732-1.229-5.677-2.647zM31 7.184l.765.833a1.75 1.75 0 01-1.533 0L31 7.184zm1.557.217l-.879-.957 1.211-1.317.339-.368-.369-.338a18.055 18.055 0 00-1.01-.863C35.078 1.413 38.588.851 41.59 1.86c3.573 1.204 5.982 4.491 6.15 8.911h-3.502c-.158-3.066-1.767-4.922-3.763-5.593-2.077-.7-5.016-.262-7.918 2.222zM30.19 4.823c.267-.232.537-.452.81-.66.273.208.543.428.81.66l-.81.881-.81-.881zm14.03 6.948h3.514c-.176 2.68-1.731 5.192-3.531 7.276h0c-1.835 2.126-4.134 4.058-6.218 5.603l-2.06-2.828c1.966-1.463 4.033-3.212 5.627-5.061 1.568-1.814 2.494-3.516 2.668-4.99zm-9.104 10.64l1.031 1.415h0l1.03 1.415c-1.944 1.42-3.483 2.504-5.677 2.647v-3.511c.42-.05.819-.177 1.307-.433.57-.3 1.277-.785 2.31-1.533z" fill="#ECA740" stroke="#ECA740"/><path d="M10 58.289h6.78c3.03 0 6.1.318 9.048.924a44.55 44.55 0 0015.99.354c2.604-.42 5.16-1.065 7.476-2.181 2.088-1.011 4.647-2.43 6.366-4.023 1.716-1.59 3.504-4.191 4.77-6.225 1.092-1.746.564-3.885-1.158-5.184a5.661 5.661 0 00-6.66 0l-5.42 4.095c-2.1 1.59-4.396 3.05-7.129 3.486-.33.05-.675.099-1.035.14m0 0c-.11.014-.22.026-.33.037m.33-.036c.48-.13.92-.378 1.281-.72a4.476 4.476 0 00.378-6.402 5.697 5.697 0 00-1.35-1.101c-8.39-5.007-21.45-1.194-29.337 4.4m29.028 3.823a1.571 1.571 0 01-.33.036m0 0a27.82 27.82 0 01-5.442.012" stroke="#ECA740" stroke-width="1.5" stroke-linecap="round"/><path d="M10 43.627a4.5 4.5 0 00-9 0v15a4.5 4.5 0 009 0v-15z" stroke="#ECA740" stroke-width="1.5"/></svg>