<svg width="26" height="26" viewBox="0 0 26 26" fill="none" xmlns="http://www.w3.org/2000/svg">
<path d="M11.3 21.2H8.6C7.64522 21.2 6.72955 20.8207 6.05442 20.1456C5.37928 19.4705 5 18.5548 5 17.6V9.5C5 8.54522 5.37928 7.62955 6.05442 6.95442C6.72955 6.27928 7.64522 5.9 8.6 5.9H18.5C19.4548 5.9 20.3705 6.27928 21.0456 6.95442C21.7207 7.62955 22.1 8.54522 22.1 9.5V12.2M10.4 5V6.8M16.7 5V6.8M5 10.4H22.1M19.85 17.2787L18.5 18.6287" stroke="#222529" stroke-width="1.5" stroke-linecap="round" stroke-linejoin="round"/>
<path d="M18.5 23C20.9853 23 23 20.9853 23 18.5C23 16.0147 20.9853 14 18.5 14C16.0147 14 14 16.0147 14 18.5C14 20.9853 16.0147 23 18.5 23Z" stroke="#222529" stroke-width="1.5" stroke-linecap="round" stroke-linejoin="round"/>
</svg>
