<svg width="22" height="23" viewBox="0 0 22 23" fill="none" xmlns="http://www.w3.org/2000/svg">
<g clip-path="url(#clip0_1487_32057)">
<path d="M18.0249 3.34167C16.0409 1.18863 13.4046 0 10.5966 0C4.80884 0 0.0964534 5.11381 0.0964534 11.3973C0.0964534 13.4045 0.579392 15.3658 1.49797 17.092L0.00683594 23L5.57307 21.4143C7.10653 22.3219 8.83664 22.8001 10.5916 22.8001H10.5966C16.3844 22.8001 21.0968 17.689 21.0968 11.4055C21.0968 8.36094 20.0065 5.49471 18.0249 3.34167ZM10.5966 20.874H10.5941C9.02583 20.874 7.48989 20.4174 6.15061 19.553L5.83446 19.3477L2.52857 20.2878L3.40981 16.7948L3.2007 16.4355C2.32942 14.9281 1.8664 13.1857 1.8664 11.3973C1.86889 6.17277 5.78467 1.92612 10.5991 1.92612C12.9292 1.92612 15.1223 2.91214 16.7678 4.70049C18.4182 6.49154 19.3244 8.87151 19.3244 11.4027C19.3244 16.6246 15.4061 20.874 10.5966 20.874Z" fill="white"/>
<path d="M15.7323 15.4675C15.5132 16.1347 14.4652 16.7425 13.9599 16.8236C13.5093 16.8965 12.9367 16.9289 12.3094 16.7101C11.9261 16.5778 11.4381 16.4022 10.8133 16.1104C8.17956 14.8759 6.46189 12.0015 6.32995 11.8097C6.19801 11.6179 5.25952 10.2645 5.25952 8.86517C5.25952 7.46582 5.93663 6.77696 6.17561 6.49061C6.41708 6.20425 6.70336 6.13672 6.87512 6.13672C7.04689 6.13672 7.22613 6.13672 7.38047 6.14482C7.53979 6.15293 7.75636 6.07999 7.97045 6.63648C8.18702 7.20649 8.71477 8.60583 8.77949 8.749C8.84422 8.89218 8.88654 9.05967 8.8019 9.24607C8.71477 9.43787 8.66996 9.55673 8.53803 9.72152C8.40609 9.88901 8.2617 10.0916 8.1447 10.2186C8.01277 10.3618 7.87585 10.5157 8.03019 10.7994C8.18204 11.0857 8.70979 12.0177 9.48897 12.7741C10.4897 13.744 11.3361 14.0438 11.6 14.187C11.8613 14.3302 12.0132 14.3059 12.1675 14.1168C12.3219 13.9249 12.8222 13.2847 12.999 13.0011C13.1732 12.7147 13.3475 12.7633 13.589 12.8579C13.8304 12.9524 15.1199 13.6413 15.3813 13.7845C15.6452 13.925 15.8194 13.9952 15.8867 14.1168C15.9514 14.2356 15.9514 14.8029 15.7323 15.4675Z" fill="white"/>
</g>
<defs>
<clipPath id="clip0_1487_32057">
<rect width="21.09" height="23" fill="white" transform="translate(0.00683594)"/>
</clipPath>
</defs>
</svg>
