<svg width="18" height="12" fill="none" xmlns="http://www.w3.org/2000/svg"><path fill-rule="evenodd" clip-rule="evenodd" d="M12.78.22a.75.75 0 10-1.06 1.06L15.44 5H.75a.75.75 0 000 1.5h14.69l-.004.004-.011.01-.01.011-.011.01-.011.012-.011.01-.01.011-.012.011-.01.01-.011.012-.011.01-.011.012-.011.01-.011.012-.011.01-.011.012-.012.01-.01.012-.012.011-.011.011-.011.012-.011.01-.012.012-.011.011-.011.012-.012.011-.011.011-.011.012-.012.011-.011.012-.012.011-.011.012-.012.011-.011.012-.012.011-.011.012-.012.011-.012.012-.011.012-.012.011-.012.012-.012.012-.011.012-.012.011L14.94 7l-.012.012-.012.012-.011.012-.012.012-.012.012-.012.011-.012.012-.012.012-.012.012-.012.012-.012.012-.012.013-.012.012-.012.012-.012.012-.013.012-.012.012-.012.012-.012.012-.012.013-.012.012-.013.012-.012.012-.012.013-.013.012-.012.012-.012.013-.013.012-.012.012-.012.013-.013.012-.012.013-.013.012-.012.012-.012.013-.013.012-.013.013-.012.012-.013.013-.012.012-.013.013-.012.013-.013.012-.012.013-.013.012-.013.013-.012.013-.013.012-.013.013-.012.013-.013.012-.013.013-.012.013-.013.012-.013.013-.013.013-.012.013-.013.012-.013.013-.013.013-.013.013-.012.013-.013.013-.013.012-.013.013-.013.013-.013.013-.013.013-.012.013-.013.013-.013.013-.013.013-.013.012-.013.013-.013.013-.013.013-.013.013-.013.013-.013.013L13.94 8l-.013.013-.013.013-.013.013-.013.013-.013.013-.013.013-.013.013-.013.013-.013.013-.013.013-.013.013-.013.014-.013.013-.013.013-.013.013-.013.013-.014.013-.013.013-.013.013-.013.013-.013.013-.013.013-.013.014-.013.013-.013.013-.014.013-.013.013-.013.013-.013.013-.013.013-.013.014-.013.013-.013.013-.014.013-.013.013-.013.013-.013.013-.013.013-.013.014-.013.013-.014.013-.013.013-.013.013-.013.013-.013.013-.013.014-.013.013-.013.013-.014.013-.013.013-.013.013-.013.013-.013.013-.013.014-.013.013-.013.013-.014.013-.013.013-.013.013-.013.013-.013.013-.013.013-.013.013-.013.014-.013.013-.013.013-.013.013-.014.013-.013.013-.013.013-.013.013-.013.013-.013.013-.013.013-.013.013-.013.013-.013.013-.013.013-.013.013-.013.013-.013.013-.013.013-.013.013-.013.013-.013.013-.013.013-.012.013-.013.013-.013.013-.013.013-.013.012-.013.013-.013.013-.013.013-.013.013-.012.013-.013.013-.013.013-.013.012-.013.013-.013.013-.012.013-.013.012-.013.013-.013.013-.012.013-.013.012-.013.013-.012.013-.013.013-.013.012-.012.013-.013.013-.013.012-.012.013-.013.012-.013.013-.012.013-.013.012-.012.013-.013.012-.012.013-.013.012-.012.013-.013.012-.012.013-.013.012-.012.012-.012.013-.013.012-.012.013-.013.012-.012.012-.012.013-.013.012-.012.012-.012.013-.012.012-.013.012-.012.012-.012.012-.012.013-.012.012-.013.012-.012.012-.012.012-.012.012-.012.012-.012.012-.012.012-.012.012-.012.012-.012.012-.012.012-.012.012-.012.012-.011.012-.012.012-.012.011-.012.012-.012.012-.011.012-.012.012-.012.011-.012.012-.011.012-.012.011-.012.012-.011.012-.012.011-.011.012-.012.011-.011.012-.012.011-.011.012a.75.75 0 101.06 1.06l.012-.011.011-.012.012-.011.011-.012.012-.011.011-.012.012-.011.012-.012.011-.012.012-.011.012-.012.011-.012.012-.011.012-.012.012-.012.011-.012.012-.012.012-.012.012-.011.012-.012.012-.012.012-.012.012-.012.012-.012.012-.012.012-.012.012-.012.012-.012.012-.012.012-.012.012-.012.012-.013.012-.012.013-.012.012-.012.012-.012.012-.013.013-.012.012-.012.012-.012.012-.013.013-.012.012-.012.012-.013.013-.012.012-.013.012-.012.013-.012.012-.013.013-.012.012-.013.013-.012.012-.013.013-.012.012-.013.013-.012.012-.013.013-.012.013-.013.012-.013.013-.012.012-.013.013-.012.013-.013.013-.013.012-.013.013-.012.013-.013.012-.013.013-.012.013-.013.013-.013.012-.013.013-.012.013-.013.013-.013.013-.013.012-.013.013-.013.013-.012.013-.013.013-.013.013-.013.013-.013.012-.013.013-.013.013-.013.013-.013.013-.012.013-.013.013-.013.013-.013.013-.013.013-.013.013-.013.013-.013.013-.013.013-.013.013-.013.013-.013.013-.013.013-.013.013-.013.013-.013.013-.013.013-.013.013-.014.013-.013.013-.013.013-.013.014-.013.012-.013.014-.013.013-.013.013-.013.013-.013.013-.013.013-.013.013-.014.013-.013.014-.013.013-.013.013-.013.013-.013.013-.013.013-.013.013-.014.013-.013.014-.013.013-.013.013-.013.013-.013.013-.013.013-.013.013-.014.013-.013.014-.013.013-.013.013-.013.013-.013.013-.013.013-.014.013-.013.013-.013.014-.013.013-.013.013-.013.013-.013.013-.013.013-.014.013-.013.014-.013.013-.013.013-.013.013-.013.013-.013.013-.013.013-.013.013-.013.013-.014.013-.013.013-.013.014-.013.012-.013.014-.013.013-.013.013-.013.013-.013.013-.013.013-.013.013-.013.013-.013.013-.013.013-.013L15 9.06l.013-.013.013-.013.013-.013.013-.013.013-.013.013-.013.013-.013.012-.013.013-.013.013-.013.013-.013.013-.012.013-.013.013-.013.013-.013.013-.013.012-.013.013-.013.013-.012.013-.013.013-.013.012-.013.013-.013.013-.012.013-.013.013-.013.012-.013.013-.012.013-.013.012-.013.013-.012.013-.013.012-.013.013-.012.013-.013.012-.013.013-.012.013-.013.012-.012.013-.013.012-.012.013-.013.012-.013.013-.012.012-.012.013-.013.012-.012.013-.013.012-.012.012-.013.013-.012.012-.012.012-.013.013-.012.012-.012.012-.013.013-.012.012-.012.012-.012.012-.013.013-.012.012-.012.012-.012.012-.012.012-.013.012-.012.012-.012.012-.012.013-.012.012-.012.012-.012.012-.012.012-.012.012-.012.011-.012.012-.012.012-.012.012-.011.012-.012L16 8.06l.012-.012.011-.012.012-.011.012-.012L16.06 8l.011-.012.012-.011.012-.012.011-.011.012-.012.011-.012.012-.011.011-.012.012-.011.011-.012.012-.011.011-.012.012-.01.01-.012.012-.012.012-.011.01-.011.012-.012.011-.01.012-.012.01-.011.012-.011.011-.011.011-.012.011-.01.011-.012.011-.01.011-.012.011-.01.011-.012.011-.01.011-.011.01-.011.012-.011.01-.01.011-.012.011-.01.01-.011.011-.01.011-.011.01-.01.011-.012.01-.01.011-.01.01-.011.011-.01.01-.01.011-.011.01-.01.01-.011.011-.01.01-.01.01-.01.01-.011.01-.01.011-.01.01-.01.01-.01.01-.01.01-.01.01-.01.01-.01.01-.01.01-.01.01-.01.01-.01.01-.01.009-.01.01-.009.01-.01.009-.01.01-.009.009-.01.01-.009.009-.01.01-.009.009-.009.009-.01.01-.009.009-.009.009-.01.01-.008.008-.01.01-.009.008-.009.01-.009.009-.009.009-.009.008-.009.01-.009.008-.008.009-.01.009-.008.009-.009.008-.008.009-.01.008-.008.009-.008.009-.009.008-.008.008-.009.009-.008.008-.009.008-.008.009-.008.008-.008.008-.009.008-.008.008-.008.009-.008.008-.008.008-.008.007-.008.008-.008.008-.007.008-.008.008-.008.007-.008.008-.007.008-.008.007-.008.008-.007.007-.008.008-.007.007-.007.007-.008.008-.007.007-.007.007-.007.007-.008.007-.007.007-.007.008-.007.006-.007.007-.007.007-.007.007-.006.007-.007.006-.007.007-.007.007-.006.006-.007.007-.006.006-.007.007-.006.006-.007.007-.006.006-.006.006-.006.006-.007.006-.006.006-.006.006-.006.006-.006.006-.006.006-.006.006-.005.006-.006.005-.006.006-.006.006-.005.005-.006.006-.005.005-.006.006-.005.005-.005.005-.006.005-.005.006-.005.005-.005.005-.005.005-.005.005-.005.005-.005.005-.005.004-.005.005-.005.005-.004.005-.005.004-.004.005-.005.004-.004.004-.005.005-.004.004-.004.004-.005.005-.004.004-.004.004-.004.004-.004.004-.004.003-.004.004-.004.004-.003.004-.004.003-.004.004-.003.003-.004.004-.003.003-.004.004-.003.003-.003.003-.004.003-.003.003-.003.003-.003.003-.003.003-.003.003-.003.003-.002.003-.003.003-.003.002-.002.003-.003.002-.002.003-.003.002-.002.002-.003.003-.002.002-.002.002-.002.002-.002.002-.002.002-.002.002-.002.001-.002.002-.001.002-.002.001-.002.002-.001.001-.002.002-.001.001-.001.001-.002h.001l.002-.002.002-.002.001-.002h.001v-.001h.002v-.002h.001V6.28h.001l-.53-.531.53.53a.75.75 0 000-1.06l-5-5z" fill="#000"/></svg>