<svg width="18" height="12" fill="none" xmlns="http://www.w3.org/2000/svg"><path fill-rule="evenodd" clip-rule="evenodd" d="M5.22 11.28a.75.75 0 001.06-1.06L2.56 6.5h14.69a.75.75 0 000-1.5H2.56l.004-.004.011-.01.01-.011.011-.01.011-.012.011-.01.01-.011.012-.011.01-.01.011-.012.011-.01.011-.012.011-.01.011-.012.011-.01.011-.012.012-.01.01-.012.012-.011.011-.011.011-.012.011-.01.012-.012.011-.011.011-.012.012-.011.011-.011.011-.012.012-.011.011-.012.012-.011.011-.012.012-.011.011-.012.012-.011.012-.012.011-.011.012-.012.011-.012.012-.011.012-.012.012-.012.011-.012.012-.011.012-.012.012-.012.012-.012.011-.012.012-.012.012-.012.012-.011.012-.012.012-.012.012-.012.012-.012.012-.012.012-.013.012-.012.012-.012.012-.012.013-.012.012-.012.012-.012.012-.012.012-.013.013-.012.012-.012.012-.012.012-.013.013-.012.012-.012.012-.013.013-.012.012-.012.012-.013.013-.012.012-.013.013-.012.012-.012.013-.013.012-.012.012-.013.013-.012.013-.013.012-.012L3.561 4l.012-.013.013-.012.012-.013.013-.012.013-.013.012-.013.013-.012.013-.013.012-.013.013-.012.013-.013.012-.013.013-.012.013-.013.013-.013.012-.013.013-.012.013-.013.013-.013.013-.013.012-.013.013-.013.013-.012.013-.013.013-.013.013-.013.013-.013.012-.013.013-.013.013-.013.013-.013.013-.012.013-.013.013-.013.013-.013.013-.013.013-.013.013-.013.013-.013.013-.013.013-.013.013-.013.013-.013.013-.013.013-.013.013-.013.013-.013.013-.013.013-.013.013-.013.013-.014.013-.013.013-.013.013-.013.014-.013.013-.013.013-.013.013-.013.013-.013.013-.013.013-.013.013-.014.013-.013.013-.013.014-.013.013-.013.013-.013.013-.013.013-.013.013-.014.013-.013.013-.013.014-.013.013-.013.013-.013.013-.013.013-.013.013-.014.013-.013.014-.013.013-.013.013-.013.013-.013.013-.013.013-.014.013-.013.013-.013.014-.013.013-.013.013-.013.013-.013.013-.013.013-.014.013-.013.013-.013.014-.013.013-.013.013-.013.013-.013.013-.013.013-.013.013-.013.013-.014.013-.013.013-.013.013-.013.013-.013.014-.013.013-.013.013-.013.013-.013.013-.013.013-.013.013-.013.013-.013.013-.013.013-.013.013-.013.013-.013.013-.013.013-.013.013-.013.013-.013.013-.013.013-.013.013-.013.012-.013.013-.013.013-.013.013-.012.013-.013.013-.013.013-.013.013-.013.013-.013.012-.013.013-.013.013-.012.013-.013.013-.013.012-.013.013-.012.013-.013.013-.013.012-.013.013-.012.013-.013.013-.013.012-.013.013-.012.013-.013.012-.013.013-.012.012-.013.013-.012.013-.013.012-.013.013-.012.012-.013.013-.012.012-.013.013-.012.012-.013.013-.012.012-.013.013-.012.012-.012.013-.013.012-.012.012-.013.013-.012.012-.012.012-.013.013-.012.012-.012.012-.013.012-.012.013-.012.012-.012.012-.012.012-.013.012-.012.013-.012.012-.012.012-.012.012-.012.012-.012.012-.012.012-.012.012-.012.012-.012.012-.012.012-.012.012-.012.012-.012.012-.012.011-.012.012-.012.012-.011.012-.012.012-.012.011-.012.012-.011.012-.012.011-.012.012-.011.012-.012.011-.012.012-.011.011-.012.012-.011.011-.012.012-.011.011-.012A.75.75 0 005.22.22l-.012.01-.011.012-.012.011-.011.012-.012.011-.011.012L5.139.3l-.012.012-.011.012-.012.011-.012.012-.011.012-.012.011-.012.012-.012.012-.011.012-.012.012-.012.011-.012.012-.012.012-.012.012-.012.012L4.95.49l-.012.012-.012.012-.012.012-.012.012L4.89.55l-.012.012-.012.012-.012.012-.012.013L4.83.61l-.013.012-.012.012-.012.012-.012.013-.012.012-.013.012-.012.012-.012.013-.013.012-.012.012-.012.013-.013.012L4.67.77l-.013.013-.012.012-.012.013L4.62.82l-.012.013-.013.012-.012.013L4.57.87l-.012.013-.013.012-.012.013L4.52.92l-.013.013-.012.013-.013.012L4.47.97l-.013.012-.013.013-.012.013-.013.012-.013.013-.013.013-.012.013-.013.012-.013.013-.013.013-.012.013-.013.012-.013.013-.013.013-.012.013-.013.013-.013.012-.013.013-.013.013-.013.013-.013.013-.012.013-.013.013-.013.013-.013.013-.013.012-.013.013-.013.013-.013.013-.013.013-.013.013-.013.013-.013.013-.013.013-.013.013-.013.013-.013.013-.013.013-.013.013-.013.013-.013.013-.013.013-.013.013-.013.013-.013.014-.013.013-.013.013-.013.013-.013.013-.014.013-.013.013-.013.013-.013.013-.013.013-.013.013-.013.013-.013.014-.013.013-.013.013-.014.013-.013.013-.013.013-.013.013-.013.013-.013.014-.013.013-.013.013-.014.013-.013.013-.013.013-.013.013-.013.013-.013.014-.013.013-.014.013-.013.013-.013.013-.013.013-.013.013-.013.014-.013.013-.013.013-.014.013-.013.013-.013.013-.013.013-.013.013-.013.014-.013.013-.013.013-.014.013-.013.013-.013.013-.013.013-.013.013-.013.013-.013.013-.013.014-.013.013-.013.013-.013.013-.014.013-.013.013-.013.013-.013.013-.013.013-.013.013-.013.013-.013.013-.013.013-.013.013-.013.013L3 2.44l-.013.013-.013.013-.013.013-.013.013-.013.013-.013.013-.013.013-.012.013-.013.013-.013.013-.013.013-.013.012-.013.013-.013.013-.013.013-.013.013-.012.013-.013.013-.013.012-.013.013-.013.013-.013.013-.012.013-.013.012-.013.013-.013.013-.012.013-.013.012-.013.013-.012.013-.013.012-.013.013-.012.013-.013.012-.013.013-.012.013-.013.012-.012.013-.013.012-.013.013-.012.012-.013.013-.012.013-.013.012-.012.012-.013.013-.012.012-.012.013-.013.012-.012.013-.013.012-.012.012-.012.013-.013.012-.012.012-.012.013-.013.012-.012.012-.012.012-.012.013-.013.012-.012.012-.012.012-.012.012-.012.013-.012.012-.012.012-.012.012-.013.012-.012.012-.012.012-.012.012-.012.012-.012.012-.011.012-.012.012-.012.012-.012.011-.012.012L2 3.44l-.012.012-.011.012-.012.011-.012.012-.012.012-.011.012-.012.011-.012.012-.011.011-.012.012-.011.012-.012.011-.011.012-.012.011-.011.012-.012.011-.011.012-.012.01-.011.012-.011.012-.012.01-.01.012-.012.012-.011.01-.012.012-.01.011-.012.011-.011.011-.011.012-.011.01-.011.012-.011.01-.011.012-.011.01-.011.012-.011.01-.011.011-.01.011-.012.011-.01.01-.011.012-.011.01-.01.011-.011.01-.011.011-.01.01-.011.012-.01.01-.011.01L1.44 4l-.011.01-.01.01-.011.011-.01.01-.01.011-.011.01-.01.01-.01.01-.01.011-.01.01-.011.01-.01.01-.01.01-.01.01-.01.01-.01.01-.01.01-.01.01-.01.01-.01.01-.01.01-.01.01-.009.01-.01.009-.01.01-.009.01-.01.009-.009.01-.01.009-.009.01-.01.009-.009.009-.01.01-.008.009-.01.009-.009.01-.01.008-.008.01-.01.009-.008.009-.01.009-.009.009-.008.009-.01.009-.008.009-.01.008-.008.01-.009.008-.008.009-.01.008-.008.01-.008.008-.009.008-.008.009-.009.008-.008.009-.009.008-.008.009-.008.008-.009.008-.008.008-.008.009-.008.008-.008.008-.008.008-.009.008-.007.008-.008.008-.008.008-.008.007-.008.008-.008.008-.007.008-.008.007-.008.008-.007.008-.008.007-.007.008-.008.007-.007.007-.007.008-.008.007-.007.007-.007.007-.007.008-.007.007-.007.007-.007.007-.007.007-.007.007L.64 4.8l-.007.006-.007.007-.007.007-.006.007-.007.006L.6 4.84l-.007.006-.006.007-.007.006-.006.007-.007.006-.006.006-.006.006-.006.007-.006.006-.006.006-.006.006-.006.006-.006.006-.006.006-.006.005-.006.006-.006.006-.005.006-.006.005-.005.006-.006.005-.005.006-.006.005-.005.005-.005.006-.006.005-.005.005-.005.005-.005.005-.005.005-.005.005-.005.005-.005.005-.004.005-.005.005-.005.004-.004.005-.005.004-.005.005-.004.004-.004.005-.005.004-.004.004-.004.005-.004.004-.005.004-.004.004-.004.004-.004.004L.34 5.1l-.004.004-.004.003-.004.004-.003.004-.004.003-.003.004-.004.003-.003.004-.004.003-.003.003L.3 5.14l-.003.003-.003.003-.004.003-.003.003-.002.003-.003.003-.003.002-.003.003-.003.003-.002.002-.003.003-.002.002-.003.003-.002.002-.002.003-.002.002-.003.002-.002.002-.002.002-.002.002-.002.002-.002.002-.001.002-.002.001-.002.002-.001.002-.002.001-.001.002-.002.001-.001.001-.001.002H.23l-.002.002-.002.002-.001.002H.224v.001H.221v.002H.22v.001l.53.531-.53-.53a.75.75 0 000 1.06l5 5z" fill="#000"/></svg>