<svg width="19" height="17" fill="none" xmlns="http://www.w3.org/2000/svg"><path d="M17.66 7.841l-3.91-3.08V2.665a1.57 1.57 0 00-.417-1.143A1.637 1.637 0 0012.213 1h-9.69a1.637 1.637 0 00-1.11.526 1.57 1.57 0 00-.411 1.138v8.323c-.008.33.085.656.266.934.182.279.444.498.754.63a2.45 2.45 0 00.228 2.315c.227.339.535.618.897.814a2.591 2.591 0 002.374.05c.37-.18.69-.447.93-.776a2.448 2.448 0 00.33-2.303h5.406a2.449 2.449 0 00.309 2.285c.235.329.547.597.91.782a2.594 2.594 0 002.354 0c.364-.185.676-.453.911-.782a2.449 2.449 0 00.309-2.285h.17a.86.86 0 00.601-.243.824.824 0 00.249-.589V8.49a.819.819 0 00-.34-.649zM16.3 8.89v2.097h-2.55V6.892L16.3 8.89zM5.251 13.484a.82.82 0 01-.143.462.847.847 0 01-.381.307.866.866 0 01-.926-.18.816.816 0 01-.184-.907.836.836 0 01.312-.374.862.862 0 011.074.103.825.825 0 01.248.589zm4.25-2.497h-6.8V2.664h9.35v8.323H9.5zm5.95 2.497a.82.82 0 01-.144.462.866.866 0 01-1.308.126.816.816 0 01-.184-.907.835.835 0 01.313-.373.863.863 0 011.073.103c.16.156.25.368.25.589z" fill="#000" stroke="#fff" stroke-width=".5"/></svg>