<svg width="19" height="19" fill="none" xmlns="http://www.w3.org/2000/svg"><path d="M7.34 17.273a1.295 1.295 0 100-2.591 1.295 1.295 0 000 2.59zm6.91 0a1.295 1.295 0 100-2.591 1.295 1.295 0 000 2.59zm2.9-14.103a.51.51 0 00-.39-.192H6.19l.33 1.033h9.575l-1.356 6.193H7.124l-2.32-7.468a.518.518 0 00-.336-.336l-2.081-.65a.502.502 0 00-.389.038.526.526 0 00-.212.7.512.512 0 00.301.253l1.823.568 2.33 7.483-.832.692-.066.067a1.386 1.386 0 00-.04 1.75 1.376 1.376 0 001.147.516h8.473a.504.504 0 00.359-.152.52.52 0 000-.73.504.504 0 00-.359-.15H6.367a.336.336 0 01-.285-.177.35.35 0 01.001-.34l1.224-1.032h7.838a.502.502 0 00.325-.109.517.517 0 00.183-.294l1.61-7.225a.524.524 0 00-.112-.439z" fill="#000"/></svg>