<svg width="18" height="18" fill="none" xmlns="http://www.w3.org/2000/svg"><mask id="a" maskUnits="userSpaceOnUse" x="0" y="0" width="18" height="18" fill="#000"><path fill="#fff" d="M0 0h18v18H0z"/><path d="M13.25 11.123a.77.77 0 00-.917-.105l-.25-1.015V9.96a.25.25 0 00-.05-.072l-.352-.353a.75.75 0 00-1.063 0l-.177-.18 3.31-3.342a.25.25 0 01.225-.068c.38.082.776.073 1.152-.027a2.527 2.527 0 001.783-1.783 2.44 2.44 0 00.067-.912.5.5 0 00-.855-.293l-.695.71a.25.25 0 01-.355 0l-.7-.707a.249.249 0 01-.072-.183.25.25 0 01.075-.18l.697-.71a.5.5 0 00.118-.52.5.5 0 00-.413-.325 2.5 2.5 0 00-2.722 3.003.25.25 0 01-.055.232L8.648 7.585 4.558 3.5l-.13-.66a.75.75 0 00-.205-.385L2.916 1.148a.5.5 0 00-.708 0l-1.06 1.06a.5.5 0 000 .707l1.305 1.308a.75.75 0 00.385.205l.66.13 4.088 4.09L4.25 12a.25.25 0 01-.225.068 2.465 2.465 0 00-1.153.027 2.527 2.527 0 00-1.79 1.77 2.44 2.44 0 00-.067.912.5.5 0 00.855.293l.695-.71a.25.25 0 01.355 0l.707.708a.25.25 0 01-.002.354l-.698.71a.5.5 0 00.295.853 2.5 2.5 0 002.722-3.002A.25.25 0 016 13.75l3.352-3.335.18.178a.75.75 0 000 1.062l.353.345a.25.25 0 00.072.05H10l1.012.25a.75.75 0 00.11.95l3.538 3.53a.75.75 0 001.06 0l1.06-1.06a.75.75 0 000-1.06l-3.53-3.537zm-.907-6.528a.75.75 0 00.203-.682 1.975 1.975 0 01.544-1.822 2.015 2.015 0 011.638-.576l-.707.71a.751.751 0 000 1.063l.707.712a.75.75 0 001.063 0l.71-.722c.022.243 0 .488-.068.722a2.02 2.02 0 01-1.425 1.425c-.3.08-.616.087-.92.02a.75.75 0 00-.685.203L10.061 9 9 7.94l3.342-3.345zm-6.685 8.81a.75.75 0 00-.202.683 1.975 1.975 0 01-.542 1.815c-.25.25-.562.43-.903.522a1.893 1.893 0 01-.728.052l.698-.712a.75.75 0 000-1.06L3.273 14a.75.75 0 00-1.062 0l-.698.72A2.02 2.02 0 013 12.565c.302-.079.617-.086.92-.02a.75.75 0 00.686-.202L7.94 9 9 10.06l-3.343 3.345zm5.465-3.592a.25.25 0 01.178.072l.177.178-1.415 1.415-.177-.178a.25.25 0 010-.352l1.062-1.063a.25.25 0 01.175-.072zM2.561 1.5l.44.443L1.943 3l-.442-.44L2.56 1.5zm.25 2.368l-.693-.688 1.063-1.062.687.69a.25.25 0 01.07.127l.12.605-.517.518-.605-.12a.25.25 0 01-.128-.07h.003zm1.167.46l.353-.353 5.92 5.91-.365.365-5.908-5.922zm7.72 6.225l.213.847-.5.5-.848-.212 1.135-1.135zm4.73 4.812l-1.062 1.062a.25.25 0 01-.353 0l-3.535-3.537a.25.25 0 010-.352l1.06-1.06a.25.25 0 01.353 0l3.537 3.534a.25.25 0 010 .353z"/></mask><path d="M13.25 11.123a.77.77 0 00-.917-.105l-.25-1.015V9.96a.25.25 0 00-.05-.072l-.352-.353a.75.75 0 00-1.063 0l-.177-.18 3.31-3.342a.25.25 0 01.225-.068c.38.082.776.073 1.152-.027a2.527 2.527 0 001.783-1.783 2.44 2.44 0 00.067-.912.5.5 0 00-.855-.293l-.695.71a.25.25 0 01-.355 0l-.7-.707a.249.249 0 01-.072-.183.25.25 0 01.075-.18l.697-.71a.5.5 0 00.118-.52.5.5 0 00-.413-.325 2.5 2.5 0 00-2.722 3.003.25.25 0 01-.055.232L8.648 7.585 4.558 3.5l-.13-.66a.75.75 0 00-.205-.385L2.916 1.148a.5.5 0 00-.708 0l-1.06 1.06a.5.5 0 000 .707l1.305 1.308a.75.75 0 00.385.205l.66.13 4.088 4.09L4.25 12a.25.25 0 01-.225.068 2.465 2.465 0 00-1.153.027 2.527 2.527 0 00-1.79 1.77 2.44 2.44 0 00-.067.912.5.5 0 00.855.293l.695-.71a.25.25 0 01.355 0l.707.708a.25.25 0 01-.002.354l-.698.71a.5.5 0 00.295.853 2.5 2.5 0 002.722-3.002A.25.25 0 016 13.75l3.352-3.335.18.178a.75.75 0 000 1.062l.353.345a.25.25 0 00.072.05H10l1.012.25a.75.75 0 00.11.95l3.538 3.53a.75.75 0 001.06 0l1.06-1.06a.75.75 0 000-1.06l-3.53-3.537zm-.907-6.528a.75.75 0 00.203-.682 1.975 1.975 0 01.544-1.822 2.015 2.015 0 011.638-.576l-.707.71a.751.751 0 000 1.063l.707.712a.75.75 0 001.063 0l.71-.722c.022.243 0 .488-.068.722a2.02 2.02 0 01-1.425 1.425c-.3.08-.616.087-.92.02a.75.75 0 00-.685.203L10.061 9 9 7.94l3.342-3.345zm-6.685 8.81a.75.75 0 00-.202.683 1.975 1.975 0 01-.542 1.815c-.25.25-.562.43-.903.522a1.893 1.893 0 01-.728.052l.698-.712a.75.75 0 000-1.06L3.273 14a.75.75 0 00-1.062 0l-.698.72A2.02 2.02 0 013 12.565c.302-.079.617-.086.92-.02a.75.75 0 00.686-.202L7.94 9 9 10.06l-3.343 3.345zm5.465-3.592a.25.25 0 01.178.072l.177.178-1.415 1.415-.177-.178a.25.25 0 010-.352l1.062-1.063a.25.25 0 01.175-.072zM2.561 1.5l.44.443L1.943 3l-.442-.44L2.56 1.5zm.25 2.368l-.693-.688 1.063-1.062.687.69a.25.25 0 01.07.127l.12.605-.517.518-.605-.12a.25.25 0 01-.128-.07h.003zm1.167.46l.353-.353 5.92 5.91-.365.365-5.908-5.922zm7.72 6.225l.213.847-.5.5-.848-.212 1.135-1.135zm4.73 4.812l-1.062 1.062a.25.25 0 01-.353 0l-3.535-3.537a.25.25 0 010-.352l1.06-1.06a.25.25 0 01.353 0l3.537 3.534a.25.25 0 010 .353z" fill="#190933"/><path d="M13.25 11.123a.77.77 0 00-.917-.105l-.25-1.015V9.96a.25.25 0 00-.05-.072l-.352-.353a.75.75 0 00-1.063 0l-.177-.18 3.31-3.342a.25.25 0 01.225-.068c.38.082.776.073 1.152-.027a2.527 2.527 0 001.783-1.783 2.44 2.44 0 00.067-.912.5.5 0 00-.855-.293l-.695.71a.25.25 0 01-.355 0l-.7-.707a.249.249 0 01-.072-.183.25.25 0 01.075-.18l.697-.71a.5.5 0 00.118-.52.5.5 0 00-.413-.325 2.5 2.5 0 00-2.722 3.003.25.25 0 01-.055.232L8.648 7.585 4.558 3.5l-.13-.66a.75.75 0 00-.205-.385L2.916 1.148a.5.5 0 00-.708 0l-1.06 1.06a.5.5 0 000 .707l1.305 1.308a.75.75 0 00.385.205l.66.13 4.088 4.09L4.25 12a.25.25 0 01-.225.068 2.465 2.465 0 00-1.153.027 2.527 2.527 0 00-1.79 1.77 2.44 2.44 0 00-.067.912.5.5 0 00.855.293l.695-.71a.25.25 0 01.355 0l.707.708a.25.25 0 01-.002.354l-.698.71a.5.5 0 00.295.853 2.5 2.5 0 002.722-3.002A.25.25 0 016 13.75l3.352-3.335.18.178a.75.75 0 000 1.062l.353.345a.25.25 0 00.072.05H10l1.012.25a.75.75 0 00.11.95l3.538 3.53a.75.75 0 001.06 0l1.06-1.06a.75.75 0 000-1.06l-3.53-3.537zm-.907-6.528a.75.75 0 00.203-.682 1.975 1.975 0 01.544-1.822 2.015 2.015 0 011.638-.576l-.707.71a.751.751 0 000 1.063l.707.712a.75.75 0 001.063 0l.71-.722c.022.243 0 .488-.068.722a2.02 2.02 0 01-1.425 1.425c-.3.08-.616.087-.92.02a.75.75 0 00-.685.203L10.061 9 9 7.94l3.342-3.345zm-6.685 8.81a.75.75 0 00-.202.683 1.975 1.975 0 01-.542 1.815c-.25.25-.562.43-.903.522a1.893 1.893 0 01-.728.052l.698-.712a.75.75 0 000-1.06L3.273 14a.75.75 0 00-1.062 0l-.698.72A2.02 2.02 0 013 12.565c.302-.079.617-.086.92-.02a.75.75 0 00.686-.202L7.94 9 9 10.06l-3.343 3.345zm5.465-3.592a.25.25 0 01.178.072l.177.178-1.415 1.415-.177-.178a.25.25 0 010-.352l1.062-1.063a.25.25 0 01.175-.072zM2.561 1.5l.44.443L1.943 3l-.442-.44L2.56 1.5zm.25 2.368l-.693-.688 1.063-1.062.687.69a.25.25 0 01.07.127l.12.605-.517.518-.605-.12a.25.25 0 01-.128-.07h.003zm1.167.46l.353-.353 5.92 5.91-.365.365-5.908-5.922zm7.72 6.225l.213.847-.5.5-.848-.212 1.135-1.135zm4.73 4.812l-1.062 1.062a.25.25 0 01-.353 0l-3.535-3.537a.25.25 0 010-.352l1.06-1.06a.25.25 0 01.353 0l3.537 3.534a.25.25 0 010 .353z" stroke="#000" stroke-width=".4" mask="url(#a)"/></svg>