<svg width="12" height="19" fill="none" xmlns="http://www.w3.org/2000/svg"><path fill-rule="evenodd" clip-rule="evenodd" d="M9.434 10.796c-1.059 2.425-2.49 4.798-3.44 6.274-.943-1.478-2.36-3.851-3.415-6.276-.57-1.312-1.017-2.598-1.235-3.74-.222-1.164-.178-2.033.067-2.61C2.354 2.22 4.18 1.197 5.951 1.2c1.776.002 3.634 1.035 4.622 3.261.255.575.309 1.439.092 2.6-.213 1.139-.658 2.424-1.23 3.735zM6.776 18.07a.927.927 0 01-1.57-.004c-1.885-2.91-6.42-10.505-4.9-14.09 2.253-5.31 9.017-5.29 11.364 0 1.592 3.587-2.99 11.187-4.894 14.094zM4.388 6.219a1.644 1.644 0 113.288 0 1.644 1.644 0 01-3.288 0zm1.644-2.844a2.844 2.844 0 100 5.688 2.844 2.844 0 000-5.688z" fill="#000"/></svg>