<svg width="14" height="18" fill="none" xmlns="http://www.w3.org/2000/svg"><path d="M3 18a.968.968 0 01-.713-.288A.964.964 0 012 17v-2H1a.968.968 0 01-.713-.288A.964.964 0 010 14c0-.283.096-.521.288-.713A.964.964 0 011 13h1v-2H1a.968.968 0 01-.713-.288A.964.964 0 010 10c0-.283.096-.521.288-.713A.964.964 0 011 9h1V1c0-.283.096-.521.288-.713A.964.964 0 013 0h5.5c1.533 0 2.833.533 3.9 1.6C13.467 2.667 14 3.967 14 5.5s-.533 2.833-1.6 3.9c-1.067 1.067-2.367 1.6-3.9 1.6H4v2h3c.283 0 .521.096.713.288.192.192.288.43.287.712a.968.968 0 01-.288.713A.964.964 0 017 15H4v2a.968.968 0 01-.288.713A.964.964 0 013 18zm1-9h4.5c.967 0 1.792-.342 2.475-1.025A3.372 3.372 0 0012 5.5c0-.967-.342-1.792-1.025-2.475A3.372 3.372 0 008.5 2H4v7z" fill="#000"/></svg>