<svg width="10" height="19" fill="none" xmlns="http://www.w3.org/2000/svg"><path d="M8.73 10.075V3.779a3.798 3.798 0 00-1.096-2.671A3.722 3.722 0 004.99 0a3.72 3.72 0 00-2.645 1.107 3.798 3.798 0 00-1.096 2.671v6.298A5.057 5.057 0 00.103 12.39a5.086 5.086 0 00.143 2.583c.27.833.75 1.582 1.394 2.17a4.97 4.97 0 002.277 1.186 5.77 5.77 0 001.072.143 4.952 4.952 0 002.722-.801 5.024 5.024 0 001.85-2.17 5.083 5.083 0 00-.831-5.425zm-1.663 5.937a3.312 3.312 0 01-4.705-.286 3.388 3.388 0 01.283-4.752.84.84 0 00.249-.596v-6.6c0-.556.219-1.09.609-1.484a2.068 2.068 0 012.939 0c.39.394.609.928.609 1.484v6.667a.847.847 0 00.249.596 3.388 3.388 0 01.652 3.94c-.214.426-.516.8-.885 1.098v-.067zM5.82 11.99V9.656a.844.844 0 00-.243-.594.827.827 0 00-1.176 0 .844.844 0 00-.243.594v2.334c-.252.146-.46.357-.606.61a1.696 1.696 0 00-.226.834c0 .445.175.873.487 1.187a1.654 1.654 0 002.352 0c.311-.315.487-.742.487-1.187a1.692 1.692 0 00-.226-.834 1.672 1.672 0 00-.606-.61z" fill="#000"/></svg>