<svg width="20" height="17" fill="none" xmlns="http://www.w3.org/2000/svg"><path d="M7.9 1.544a1.795 1.795 0 012.442-.126c.232.193.413.44.528.72a1.866 1.866 0 01-.171 1.732 1.827 1.827 0 01-.658.6c-.264.143-.56.217-.86.216H1m9.627 10.513a1.795 1.795 0 002.443.126 1.865 1.865 0 00.356-2.452 1.828 1.828 0 00-.658-.601 1.799 1.799 0 00-.859-.215H1m14.3-7.62a2.244 2.244 0 013.047-.15 2.333 2.333 0 01.449 3.058 2.284 2.284 0 01-.817.753 2.237 2.237 0 01-1.07.273H1" stroke="#000" stroke-linecap="round" stroke-linejoin="round"/></svg>