<svg width="20" height="19" fill="none" xmlns="http://www.w3.org/2000/svg"><path d="M13.578.147a1.426 1.426 0 00-1.461.12l-7.441 5.39H2.224A2.181 2.181 0 000 7.793v2.851a2.188 2.188 0 002.23 2.139h2.446l7.44 5.495a1.44 1.44 0 001.49.128 1.426 1.426 0 00.749-1.283V1.444a1.425 1.425 0 00-.777-1.297zM2.224 11.379a.762.762 0 01-.799-.712V7.816a.755.755 0 01.806-.713h1.967v4.276H2.224zm10.69 5.752l-7.29-5.417V6.725l7.305-5.281v15.68l-.014.007zm5.853-7.847l1.012-1.162a.713.713 0 10-1.07-.934l-.89 1.013-.891-1.013a.714.714 0 00-1.236.692.713.713 0 00.167.242l1.012 1.162-1.012 1.162a.713.713 0 00.064.976c.13.115.297.178.47.178a.713.713 0 00.535-.25l.89-.983.891 1.012a.714.714 0 00.535.25.712.712 0 00.535-1.183l-1.012-1.162z" fill="#000"/><path d="M13.578.147a1.426 1.426 0 00-1.461.12l-7.441 5.39H2.224A2.181 2.181 0 000 7.793v2.851a2.188 2.188 0 002.23 2.139h2.446l7.44 5.495a1.44 1.44 0 001.49.128 1.426 1.426 0 00.749-1.283V1.444a1.425 1.425 0 00-.777-1.297zM2.224 11.379a.762.762 0 01-.799-.712V7.816a.755.755 0 01.806-.713h1.967v4.276H2.224zm10.69 5.752l-7.29-5.417V6.725l7.305-5.281v15.68l-.014.007zm5.853-7.847l1.012-1.162a.713.713 0 10-1.07-.934l-.89 1.013-.891-1.013a.714.714 0 00-1.236.692.713.713 0 00.167.242l1.012 1.162-1.012 1.162a.713.713 0 00.064.976c.13.115.297.178.47.178a.713.713 0 00.535-.25l.89-.983.891 1.012a.714.714 0 00.535.25.712.712 0 00.535-1.183l-1.012-1.162z" stroke="#009945"/></svg>